<?xml version="1.0" encoding="utf-8"?>
<svg xmlns="http://www.w3.org/2000/svg" xmlns:xlink="http://www.w3.org/1999/xlink" width="600" height="400" viewBox="0 0 2400 1600">
<defs>
  <clipPath id="clip560">
    <rect x="0" y="0" width="2400" height="1600"/>
  </clipPath>
</defs>
<path clip-path="url(#clip560)" d="
M0 1600 L2400 1600 L2400 0 L0 0  Z
  " fill="#ffffff" fill-rule="evenodd" fill-opacity="1"/>
<defs>
  <clipPath id="clip561">
    <rect x="480" y="0" width="1681" height="1600"/>
  </clipPath>
</defs>
<path clip-path="url(#clip560)" d="
M276.274 1486.45 L2352.76 1486.45 L2352.76 47.2441 L276.274 47.2441  Z
  " fill="#ffffff" fill-rule="evenodd" fill-opacity="1"/>
<defs>
  <clipPath id="clip562">
    <rect x="276" y="47" width="2077" height="1440"/>
  </clipPath>
</defs>
<polyline clip-path="url(#clip562)" style="stroke:#222255; stroke-linecap:butt; stroke-linejoin:round; stroke-width:2; stroke-opacity:0.1; fill:none" points="
  801.164,1486.45 801.164,47.2441 
  "/>
<polyline clip-path="url(#clip562)" style="stroke:#222255; stroke-linecap:butt; stroke-linejoin:round; stroke-width:2; stroke-opacity:0.1; fill:none" points="
  1827.87,1486.45 1827.87,47.2441 
  "/>
<polyline clip-path="url(#clip562)" style="stroke:#222255; stroke-linecap:butt; stroke-linejoin:round; stroke-width:2; stroke-opacity:0.05; fill:none" points="
  390.484,1486.45 390.484,47.2441 
  "/>
<polyline clip-path="url(#clip562)" style="stroke:#222255; stroke-linecap:butt; stroke-linejoin:round; stroke-width:2; stroke-opacity:0.05; fill:none" points="
  595.824,1486.45 595.824,47.2441 
  "/>
<polyline clip-path="url(#clip562)" style="stroke:#222255; stroke-linecap:butt; stroke-linejoin:round; stroke-width:2; stroke-opacity:0.05; fill:none" points="
  1006.5,1486.45 1006.5,47.2441 
  "/>
<polyline clip-path="url(#clip562)" style="stroke:#222255; stroke-linecap:butt; stroke-linejoin:round; stroke-width:2; stroke-opacity:0.05; fill:none" points="
  1211.84,1486.45 1211.84,47.2441 
  "/>
<polyline clip-path="url(#clip562)" style="stroke:#222255; stroke-linecap:butt; stroke-linejoin:round; stroke-width:2; stroke-opacity:0.05; fill:none" points="
  1417.18,1486.45 1417.18,47.2441 
  "/>
<polyline clip-path="url(#clip562)" style="stroke:#222255; stroke-linecap:butt; stroke-linejoin:round; stroke-width:2; stroke-opacity:0.05; fill:none" points="
  1622.53,1486.45 1622.53,47.2441 
  "/>
<polyline clip-path="url(#clip562)" style="stroke:#222255; stroke-linecap:butt; stroke-linejoin:round; stroke-width:2; stroke-opacity:0.05; fill:none" points="
  2033.21,1486.45 2033.21,47.2441 
  "/>
<polyline clip-path="url(#clip562)" style="stroke:#222255; stroke-linecap:butt; stroke-linejoin:round; stroke-width:2; stroke-opacity:0.05; fill:none" points="
  2238.55,1486.45 2238.55,47.2441 
  "/>
<polyline clip-path="url(#clip560)" style="stroke:#222255; stroke-linecap:butt; stroke-linejoin:round; stroke-width:4; stroke-opacity:0; fill:none" points="
  801.164,1486.45 801.164,1467.55 
  "/>
<polyline clip-path="url(#clip560)" style="stroke:#222255; stroke-linecap:butt; stroke-linejoin:round; stroke-width:4; stroke-opacity:0; fill:none" points="
  1827.87,1486.45 1827.87,1467.55 
  "/>
<polyline clip-path="url(#clip560)" style="stroke:#222255; stroke-linecap:butt; stroke-linejoin:round; stroke-width:4; stroke-opacity:0; fill:none" points="
  390.484,1486.45 390.484,1477 
  "/>
<polyline clip-path="url(#clip560)" style="stroke:#222255; stroke-linecap:butt; stroke-linejoin:round; stroke-width:4; stroke-opacity:0; fill:none" points="
  595.824,1486.45 595.824,1477 
  "/>
<polyline clip-path="url(#clip560)" style="stroke:#222255; stroke-linecap:butt; stroke-linejoin:round; stroke-width:4; stroke-opacity:0; fill:none" points="
  1006.5,1486.45 1006.5,1477 
  "/>
<polyline clip-path="url(#clip560)" style="stroke:#222255; stroke-linecap:butt; stroke-linejoin:round; stroke-width:4; stroke-opacity:0; fill:none" points="
  1211.84,1486.45 1211.84,1477 
  "/>
<polyline clip-path="url(#clip560)" style="stroke:#222255; stroke-linecap:butt; stroke-linejoin:round; stroke-width:4; stroke-opacity:0; fill:none" points="
  1417.18,1486.45 1417.18,1477 
  "/>
<polyline clip-path="url(#clip560)" style="stroke:#222255; stroke-linecap:butt; stroke-linejoin:round; stroke-width:4; stroke-opacity:0; fill:none" points="
  1622.53,1486.45 1622.53,1477 
  "/>
<polyline clip-path="url(#clip560)" style="stroke:#222255; stroke-linecap:butt; stroke-linejoin:round; stroke-width:4; stroke-opacity:0; fill:none" points="
  2033.21,1486.45 2033.21,1477 
  "/>
<polyline clip-path="url(#clip560)" style="stroke:#222255; stroke-linecap:butt; stroke-linejoin:round; stroke-width:4; stroke-opacity:0; fill:none" points="
  2238.55,1486.45 2238.55,1477 
  "/>
<path clip-path="url(#clip560)" d="M804.092 1532.64 Q805.597 1533.15 807.009 1534.82 Q808.444 1536.49 809.879 1539.4 L814.625 1548.85 L809.602 1548.85 L805.18 1539.98 Q803.467 1536.51 801.847 1535.38 Q800.25 1534.24 797.472 1534.24 L792.38 1534.24 L792.38 1548.85 L787.704 1548.85 L787.704 1514.29 L798.259 1514.29 Q804.185 1514.29 807.102 1516.76 Q810.018 1519.24 810.018 1524.24 Q810.018 1527.51 808.491 1529.66 Q806.986 1531.81 804.092 1532.64 M792.38 1518.13 L792.38 1530.4 L798.259 1530.4 Q801.639 1530.4 803.352 1528.85 Q805.088 1527.27 805.088 1524.24 Q805.088 1521.21 803.352 1519.68 Q801.639 1518.13 798.259 1518.13 L792.38 1518.13 Z" fill="#000000" fill-rule="evenodd" fill-opacity="1" /><path clip-path="url(#clip560)" d="M1786.19 1514.29 L1790.86 1514.29 L1790.86 1546.44 Q1790.86 1552.69 1788.48 1555.51 Q1786.12 1558.34 1780.86 1558.34 L1779.08 1558.34 L1779.08 1554.4 L1780.54 1554.4 Q1783.64 1554.4 1784.91 1552.67 Q1786.19 1550.93 1786.19 1546.44 L1786.19 1514.29 Z" fill="#000000" fill-rule="evenodd" fill-opacity="1" /><path clip-path="url(#clip560)" d="M1799.54 1538.62 L1799.54 1522.92 L1803.8 1522.92 L1803.8 1538.45 Q1803.8 1542.13 1805.24 1543.99 Q1806.67 1545.82 1809.54 1545.82 Q1812.99 1545.82 1814.98 1543.62 Q1817 1541.42 1817 1537.62 L1817 1522.92 L1821.26 1522.92 L1821.26 1548.85 L1817 1548.85 L1817 1544.87 Q1815.45 1547.23 1813.39 1548.38 Q1811.35 1549.52 1808.64 1549.52 Q1804.17 1549.52 1801.86 1546.74 Q1799.54 1543.96 1799.54 1538.62 M1810.26 1522.3 L1810.26 1522.3 Z" fill="#000000" fill-rule="evenodd" fill-opacity="1" /><path clip-path="url(#clip560)" d="M1830.03 1512.83 L1834.29 1512.83 L1834.29 1548.85 L1830.03 1548.85 L1830.03 1512.83 Z" fill="#000000" fill-rule="evenodd" fill-opacity="1" /><path clip-path="url(#clip560)" d="M1843.2 1522.92 L1847.46 1522.92 L1847.46 1548.85 L1843.2 1548.85 L1843.2 1522.92 M1843.2 1512.83 L1847.46 1512.83 L1847.46 1518.22 L1843.2 1518.22 L1843.2 1512.83 Z" fill="#000000" fill-rule="evenodd" fill-opacity="1" /><path clip-path="url(#clip560)" d="M1868.15 1535.82 Q1862.99 1535.82 1861 1537 Q1859.01 1538.18 1859.01 1541.02 Q1859.01 1543.29 1860.49 1544.63 Q1862 1545.95 1864.57 1545.95 Q1868.11 1545.95 1870.24 1543.45 Q1872.39 1540.93 1872.39 1536.76 L1872.39 1535.82 L1868.15 1535.82 M1876.65 1534.06 L1876.65 1548.85 L1872.39 1548.85 L1872.39 1544.91 Q1870.93 1547.27 1868.76 1548.41 Q1866.58 1549.52 1863.43 1549.52 Q1859.45 1549.52 1857.09 1547.3 Q1854.75 1545.05 1854.75 1541.3 Q1854.75 1536.93 1857.67 1534.7 Q1860.61 1532.48 1866.42 1532.48 L1872.39 1532.48 L1872.39 1532.07 Q1872.39 1529.13 1870.45 1527.53 Q1868.52 1525.91 1865.03 1525.91 Q1862.81 1525.91 1860.7 1526.44 Q1858.59 1526.97 1856.65 1528.04 L1856.65 1524.1 Q1858.99 1523.2 1861.19 1522.76 Q1863.39 1522.3 1865.47 1522.3 Q1871.09 1522.3 1873.87 1525.21 Q1876.65 1528.13 1876.65 1534.06 Z" fill="#000000" fill-rule="evenodd" fill-opacity="1" /><polyline clip-path="url(#clip562)" style="stroke:#222255; stroke-linecap:butt; stroke-linejoin:round; stroke-width:2; stroke-opacity:0.1; fill:none" points="
  276.274,1486.45 2352.76,1486.45 
  "/>
<polyline clip-path="url(#clip562)" style="stroke:#222255; stroke-linecap:butt; stroke-linejoin:round; stroke-width:2; stroke-opacity:0.1; fill:none" points="
  276.274,1032.9 2352.76,1032.9 
  "/>
<polyline clip-path="url(#clip562)" style="stroke:#222255; stroke-linecap:butt; stroke-linejoin:round; stroke-width:2; stroke-opacity:0.1; fill:none" points="
  276.274,579.354 2352.76,579.354 
  "/>
<polyline clip-path="url(#clip562)" style="stroke:#222255; stroke-linecap:butt; stroke-linejoin:round; stroke-width:2; stroke-opacity:0.1; fill:none" points="
  276.274,125.807 2352.76,125.807 
  "/>
<polyline clip-path="url(#clip562)" style="stroke:#222255; stroke-linecap:butt; stroke-linejoin:round; stroke-width:2; stroke-opacity:0.05; fill:none" points="
  276.274,1395.74 2352.76,1395.74 
  "/>
<polyline clip-path="url(#clip562)" style="stroke:#222255; stroke-linecap:butt; stroke-linejoin:round; stroke-width:2; stroke-opacity:0.05; fill:none" points="
  276.274,1305.03 2352.76,1305.03 
  "/>
<polyline clip-path="url(#clip562)" style="stroke:#222255; stroke-linecap:butt; stroke-linejoin:round; stroke-width:2; stroke-opacity:0.05; fill:none" points="
  276.274,1214.32 2352.76,1214.32 
  "/>
<polyline clip-path="url(#clip562)" style="stroke:#222255; stroke-linecap:butt; stroke-linejoin:round; stroke-width:2; stroke-opacity:0.05; fill:none" points="
  276.274,1123.61 2352.76,1123.61 
  "/>
<polyline clip-path="url(#clip562)" style="stroke:#222255; stroke-linecap:butt; stroke-linejoin:round; stroke-width:2; stroke-opacity:0.05; fill:none" points="
  276.274,942.192 2352.76,942.192 
  "/>
<polyline clip-path="url(#clip562)" style="stroke:#222255; stroke-linecap:butt; stroke-linejoin:round; stroke-width:2; stroke-opacity:0.05; fill:none" points="
  276.274,851.482 2352.76,851.482 
  "/>
<polyline clip-path="url(#clip562)" style="stroke:#222255; stroke-linecap:butt; stroke-linejoin:round; stroke-width:2; stroke-opacity:0.05; fill:none" points="
  276.274,760.773 2352.76,760.773 
  "/>
<polyline clip-path="url(#clip562)" style="stroke:#222255; stroke-linecap:butt; stroke-linejoin:round; stroke-width:2; stroke-opacity:0.05; fill:none" points="
  276.274,670.064 2352.76,670.064 
  "/>
<polyline clip-path="url(#clip562)" style="stroke:#222255; stroke-linecap:butt; stroke-linejoin:round; stroke-width:2; stroke-opacity:0.05; fill:none" points="
  276.274,488.645 2352.76,488.645 
  "/>
<polyline clip-path="url(#clip562)" style="stroke:#222255; stroke-linecap:butt; stroke-linejoin:round; stroke-width:2; stroke-opacity:0.05; fill:none" points="
  276.274,397.936 2352.76,397.936 
  "/>
<polyline clip-path="url(#clip562)" style="stroke:#222255; stroke-linecap:butt; stroke-linejoin:round; stroke-width:2; stroke-opacity:0.05; fill:none" points="
  276.274,307.226 2352.76,307.226 
  "/>
<polyline clip-path="url(#clip562)" style="stroke:#222255; stroke-linecap:butt; stroke-linejoin:round; stroke-width:2; stroke-opacity:0.05; fill:none" points="
  276.274,216.517 2352.76,216.517 
  "/>
<polyline clip-path="url(#clip560)" style="stroke:#222255; stroke-linecap:butt; stroke-linejoin:round; stroke-width:4; stroke-opacity:0; fill:none" points="
  276.274,1486.45 295.171,1486.45 
  "/>
<polyline clip-path="url(#clip560)" style="stroke:#222255; stroke-linecap:butt; stroke-linejoin:round; stroke-width:4; stroke-opacity:0; fill:none" points="
  276.274,1032.9 295.171,1032.9 
  "/>
<polyline clip-path="url(#clip560)" style="stroke:#222255; stroke-linecap:butt; stroke-linejoin:round; stroke-width:4; stroke-opacity:0; fill:none" points="
  276.274,579.354 295.171,579.354 
  "/>
<polyline clip-path="url(#clip560)" style="stroke:#222255; stroke-linecap:butt; stroke-linejoin:round; stroke-width:4; stroke-opacity:0; fill:none" points="
  276.274,125.807 295.171,125.807 
  "/>
<polyline clip-path="url(#clip560)" style="stroke:#222255; stroke-linecap:butt; stroke-linejoin:round; stroke-width:4; stroke-opacity:0; fill:none" points="
  276.274,1395.74 285.722,1395.74 
  "/>
<polyline clip-path="url(#clip560)" style="stroke:#222255; stroke-linecap:butt; stroke-linejoin:round; stroke-width:4; stroke-opacity:0; fill:none" points="
  276.274,1305.03 285.722,1305.03 
  "/>
<polyline clip-path="url(#clip560)" style="stroke:#222255; stroke-linecap:butt; stroke-linejoin:round; stroke-width:4; stroke-opacity:0; fill:none" points="
  276.274,1214.32 285.722,1214.32 
  "/>
<polyline clip-path="url(#clip560)" style="stroke:#222255; stroke-linecap:butt; stroke-linejoin:round; stroke-width:4; stroke-opacity:0; fill:none" points="
  276.274,1123.61 285.722,1123.61 
  "/>
<polyline clip-path="url(#clip560)" style="stroke:#222255; stroke-linecap:butt; stroke-linejoin:round; stroke-width:4; stroke-opacity:0; fill:none" points="
  276.274,942.192 285.722,942.192 
  "/>
<polyline clip-path="url(#clip560)" style="stroke:#222255; stroke-linecap:butt; stroke-linejoin:round; stroke-width:4; stroke-opacity:0; fill:none" points="
  276.274,851.482 285.722,851.482 
  "/>
<polyline clip-path="url(#clip560)" style="stroke:#222255; stroke-linecap:butt; stroke-linejoin:round; stroke-width:4; stroke-opacity:0; fill:none" points="
  276.274,760.773 285.722,760.773 
  "/>
<polyline clip-path="url(#clip560)" style="stroke:#222255; stroke-linecap:butt; stroke-linejoin:round; stroke-width:4; stroke-opacity:0; fill:none" points="
  276.274,670.064 285.722,670.064 
  "/>
<polyline clip-path="url(#clip560)" style="stroke:#222255; stroke-linecap:butt; stroke-linejoin:round; stroke-width:4; stroke-opacity:0; fill:none" points="
  276.274,488.645 285.722,488.645 
  "/>
<polyline clip-path="url(#clip560)" style="stroke:#222255; stroke-linecap:butt; stroke-linejoin:round; stroke-width:4; stroke-opacity:0; fill:none" points="
  276.274,397.936 285.722,397.936 
  "/>
<polyline clip-path="url(#clip560)" style="stroke:#222255; stroke-linecap:butt; stroke-linejoin:round; stroke-width:4; stroke-opacity:0; fill:none" points="
  276.274,307.226 285.722,307.226 
  "/>
<polyline clip-path="url(#clip560)" style="stroke:#222255; stroke-linecap:butt; stroke-linejoin:round; stroke-width:4; stroke-opacity:0; fill:none" points="
  276.274,216.517 285.722,216.517 
  "/>
<path clip-path="url(#clip560)" d="M228.329 1472.25 Q224.718 1472.25 222.889 1475.81 Q221.084 1479.35 221.084 1486.48 Q221.084 1493.59 222.889 1497.15 Q224.718 1500.7 228.329 1500.7 Q231.963 1500.7 233.769 1497.15 Q235.598 1493.59 235.598 1486.48 Q235.598 1479.35 233.769 1475.81 Q231.963 1472.25 228.329 1472.25 M228.329 1468.54 Q234.139 1468.54 237.195 1473.15 Q240.274 1477.73 240.274 1486.48 Q240.274 1495.21 237.195 1499.82 Q234.139 1504.4 228.329 1504.4 Q222.519 1504.4 219.44 1499.82 Q216.385 1495.21 216.385 1486.48 Q216.385 1477.73 219.44 1473.15 Q222.519 1468.54 228.329 1468.54 Z" fill="#000000" fill-rule="evenodd" fill-opacity="1" /><path clip-path="url(#clip560)" d="M53.3995 1052.69 L61.0384 1052.69 L61.0384 1026.33 L52.7282 1027.99 L52.7282 1023.74 L60.9921 1022.07 L65.668 1022.07 L65.668 1052.69 L73.3068 1052.69 L73.3068 1056.63 L53.3995 1056.63 L53.3995 1052.69 Z" fill="#000000" fill-rule="evenodd" fill-opacity="1" /><path clip-path="url(#clip560)" d="M82.7512 1050.75 L87.6354 1050.75 L87.6354 1056.63 L82.7512 1056.63 L82.7512 1050.75 Z" fill="#000000" fill-rule="evenodd" fill-opacity="1" /><path clip-path="url(#clip560)" d="M107.821 1025.15 Q104.209 1025.15 102.381 1028.71 Q100.575 1032.25 100.575 1039.38 Q100.575 1046.49 102.381 1050.05 Q104.209 1053.6 107.821 1053.6 Q111.455 1053.6 113.26 1050.05 Q115.089 1046.49 115.089 1039.38 Q115.089 1032.25 113.26 1028.71 Q111.455 1025.15 107.821 1025.15 M107.821 1021.44 Q113.631 1021.44 116.686 1026.05 Q119.765 1030.63 119.765 1039.38 Q119.765 1048.11 116.686 1052.72 Q113.631 1057.3 107.821 1057.3 Q102.01 1057.3 98.9317 1052.72 Q95.8761 1048.11 95.8761 1039.38 Q95.8761 1030.63 98.9317 1026.05 Q102.01 1021.44 107.821 1021.44 Z" fill="#000000" fill-rule="evenodd" fill-opacity="1" /><path clip-path="url(#clip560)" d="M156.154 1031.17 L145.575 1041.79 L156.154 1052.37 L153.399 1055.17 L142.774 1044.55 L132.149 1055.17 L129.418 1052.37 L139.973 1041.79 L129.418 1031.17 L132.149 1028.36 L142.774 1038.99 L153.399 1028.36 L156.154 1031.17 Z" fill="#000000" fill-rule="evenodd" fill-opacity="1" /><path clip-path="url(#clip560)" d="M168.515 1052.69 L176.153 1052.69 L176.153 1026.33 L167.843 1027.99 L167.843 1023.74 L176.107 1022.07 L180.783 1022.07 L180.783 1052.69 L188.422 1052.69 L188.422 1056.63 L168.515 1056.63 L168.515 1052.69 Z" fill="#000000" fill-rule="evenodd" fill-opacity="1" /><path clip-path="url(#clip560)" d="M207.866 1025.15 Q204.255 1025.15 202.426 1028.71 Q200.621 1032.25 200.621 1039.38 Q200.621 1046.49 202.426 1050.05 Q204.255 1053.6 207.866 1053.6 Q211.501 1053.6 213.306 1050.05 Q215.135 1046.49 215.135 1039.38 Q215.135 1032.25 213.306 1028.71 Q211.501 1025.15 207.866 1025.15 M207.866 1021.44 Q213.676 1021.44 216.732 1026.05 Q219.811 1030.63 219.811 1039.38 Q219.811 1048.11 216.732 1052.72 Q213.676 1057.3 207.866 1057.3 Q202.056 1057.3 198.977 1052.72 Q195.922 1048.11 195.922 1039.38 Q195.922 1030.63 198.977 1026.05 Q202.056 1021.44 207.866 1021.44 Z" fill="#000000" fill-rule="evenodd" fill-opacity="1" /><path clip-path="url(#clip560)" d="M232.487 1004.45 L222.895 1019.44 L232.487 1019.44 L232.487 1004.45 M231.49 1001.14 L236.267 1001.14 L236.267 1019.44 L240.274 1019.44 L240.274 1022.6 L236.267 1022.6 L236.267 1029.22 L232.487 1029.22 L232.487 1022.6 L219.811 1022.6 L219.811 1018.93 L231.49 1001.14 Z" fill="#000000" fill-rule="evenodd" fill-opacity="1" /><path clip-path="url(#clip560)" d="M56.6171 599.147 L72.9365 599.147 L72.9365 603.082 L50.9921 603.082 L50.9921 599.147 Q53.6541 596.392 58.2375 591.762 Q62.8439 587.11 64.0245 585.767 Q66.2698 583.244 67.1494 581.508 Q68.0522 579.749 68.0522 578.059 Q68.0522 575.304 66.1078 573.568 Q64.1865 571.832 61.0847 571.832 Q58.8856 571.832 56.4319 572.596 Q54.0014 573.36 51.2236 574.911 L51.2236 570.189 Q54.0477 569.054 56.5014 568.476 Q58.955 567.897 60.9921 567.897 Q66.3624 567.897 69.5568 570.582 Q72.7513 573.267 72.7513 577.758 Q72.7513 579.888 71.9411 581.809 Q71.1541 583.707 69.0476 586.3 Q68.4689 586.971 65.367 590.188 Q62.2652 593.383 56.6171 599.147 Z" fill="#000000" fill-rule="evenodd" fill-opacity="1" /><path clip-path="url(#clip560)" d="M82.7512 597.202 L87.6354 597.202 L87.6354 603.082 L82.7512 603.082 L82.7512 597.202 Z" fill="#000000" fill-rule="evenodd" fill-opacity="1" /><path clip-path="url(#clip560)" d="M107.821 571.601 Q104.209 571.601 102.381 575.165 Q100.575 578.707 100.575 585.837 Q100.575 592.943 102.381 596.508 Q104.209 600.049 107.821 600.049 Q111.455 600.049 113.26 596.508 Q115.089 592.943 115.089 585.837 Q115.089 578.707 113.26 575.165 Q111.455 571.601 107.821 571.601 M107.821 567.897 Q113.631 567.897 116.686 572.503 Q119.765 577.087 119.765 585.837 Q119.765 594.563 116.686 599.17 Q113.631 603.753 107.821 603.753 Q102.01 603.753 98.9317 599.17 Q95.8761 594.563 95.8761 585.837 Q95.8761 577.087 98.9317 572.503 Q102.01 567.897 107.821 567.897 Z" fill="#000000" fill-rule="evenodd" fill-opacity="1" /><path clip-path="url(#clip560)" d="M156.154 577.619 L145.575 588.244 L156.154 598.823 L153.399 601.624 L142.774 590.999 L132.149 601.624 L129.418 598.823 L139.973 588.244 L129.418 577.619 L132.149 574.818 L142.774 585.443 L153.399 574.818 L156.154 577.619 Z" fill="#000000" fill-rule="evenodd" fill-opacity="1" /><path clip-path="url(#clip560)" d="M168.515 599.147 L176.153 599.147 L176.153 572.781 L167.843 574.448 L167.843 570.189 L176.107 568.522 L180.783 568.522 L180.783 599.147 L188.422 599.147 L188.422 603.082 L168.515 603.082 L168.515 599.147 Z" fill="#000000" fill-rule="evenodd" fill-opacity="1" /><path clip-path="url(#clip560)" d="M207.866 571.601 Q204.255 571.601 202.426 575.165 Q200.621 578.707 200.621 585.837 Q200.621 592.943 202.426 596.508 Q204.255 600.049 207.866 600.049 Q211.501 600.049 213.306 596.508 Q215.135 592.943 215.135 585.837 Q215.135 578.707 213.306 575.165 Q211.501 571.601 207.866 571.601 M207.866 567.897 Q213.676 567.897 216.732 572.503 Q219.811 577.087 219.811 585.837 Q219.811 594.563 216.732 599.17 Q213.676 603.753 207.866 603.753 Q202.056 603.753 198.977 599.17 Q195.922 594.563 195.922 585.837 Q195.922 577.087 198.977 572.503 Q202.056 567.897 207.866 567.897 Z" fill="#000000" fill-rule="evenodd" fill-opacity="1" /><path clip-path="url(#clip560)" d="M232.487 550.902 L222.895 565.891 L232.487 565.891 L232.487 550.902 M231.49 547.591 L236.267 547.591 L236.267 565.891 L240.274 565.891 L240.274 569.051 L236.267 569.051 L236.267 575.671 L232.487 575.671 L232.487 569.051 L219.811 569.051 L219.811 565.384 L231.49 547.591 Z" fill="#000000" fill-rule="evenodd" fill-opacity="1" /><path clip-path="url(#clip560)" d="M66.7559 130.901 Q70.1124 131.619 71.9874 133.887 Q73.8855 136.156 73.8855 139.489 Q73.8855 144.605 70.367 147.405 Q66.8485 150.206 60.3671 150.206 Q58.1912 150.206 55.8764 149.767 Q53.5847 149.35 51.131 148.493 L51.131 143.98 Q53.0754 145.114 55.3903 145.692 Q57.7051 146.271 60.2282 146.271 Q64.6263 146.271 66.918 144.535 Q69.2328 142.799 69.2328 139.489 Q69.2328 136.433 67.08 134.72 Q64.9504 132.984 61.131 132.984 L57.1032 132.984 L57.1032 129.142 L61.3161 129.142 Q64.7652 129.142 66.5939 127.776 Q68.4226 126.387 68.4226 123.794 Q68.4226 121.132 66.5245 119.72 Q64.6495 118.285 61.131 118.285 Q59.2097 118.285 57.0106 118.702 Q54.8115 119.119 52.1727 119.998 L52.1727 115.832 Q54.8347 115.091 57.1495 114.72 Q59.4875 114.35 61.5476 114.35 Q66.8717 114.35 69.9735 116.781 Q73.0753 119.188 73.0753 123.308 Q73.0753 126.179 71.4318 128.169 Q69.7883 130.137 66.7559 130.901 Z" fill="#000000" fill-rule="evenodd" fill-opacity="1" /><path clip-path="url(#clip560)" d="M82.7512 143.655 L87.6354 143.655 L87.6354 149.535 L82.7512 149.535 L82.7512 143.655 Z" fill="#000000" fill-rule="evenodd" fill-opacity="1" /><path clip-path="url(#clip560)" d="M107.821 118.054 Q104.209 118.054 102.381 121.619 Q100.575 125.16 100.575 132.29 Q100.575 139.396 102.381 142.961 Q104.209 146.503 107.821 146.503 Q111.455 146.503 113.26 142.961 Q115.089 139.396 115.089 132.29 Q115.089 125.16 113.26 121.619 Q111.455 118.054 107.821 118.054 M107.821 114.35 Q113.631 114.35 116.686 118.957 Q119.765 123.54 119.765 132.29 Q119.765 141.017 116.686 145.623 Q113.631 150.206 107.821 150.206 Q102.01 150.206 98.9317 145.623 Q95.8761 141.017 95.8761 132.29 Q95.8761 123.54 98.9317 118.957 Q102.01 114.35 107.821 114.35 Z" fill="#000000" fill-rule="evenodd" fill-opacity="1" /><path clip-path="url(#clip560)" d="M156.154 124.072 L145.575 134.697 L156.154 145.276 L153.399 148.077 L142.774 137.452 L132.149 148.077 L129.418 145.276 L139.973 134.697 L129.418 124.072 L132.149 121.271 L142.774 131.896 L153.399 121.271 L156.154 124.072 Z" fill="#000000" fill-rule="evenodd" fill-opacity="1" /><path clip-path="url(#clip560)" d="M168.515 145.6 L176.153 145.6 L176.153 119.234 L167.843 120.901 L167.843 116.642 L176.107 114.975 L180.783 114.975 L180.783 145.6 L188.422 145.6 L188.422 149.535 L168.515 149.535 L168.515 145.6 Z" fill="#000000" fill-rule="evenodd" fill-opacity="1" /><path clip-path="url(#clip560)" d="M207.866 118.054 Q204.255 118.054 202.426 121.619 Q200.621 125.16 200.621 132.29 Q200.621 139.396 202.426 142.961 Q204.255 146.503 207.866 146.503 Q211.501 146.503 213.306 142.961 Q215.135 139.396 215.135 132.29 Q215.135 125.16 213.306 121.619 Q211.501 118.054 207.866 118.054 M207.866 114.35 Q213.676 114.35 216.732 118.957 Q219.811 123.54 219.811 132.29 Q219.811 141.017 216.732 145.623 Q213.676 150.206 207.866 150.206 Q202.056 150.206 198.977 145.623 Q195.922 141.017 195.922 132.29 Q195.922 123.54 198.977 118.957 Q202.056 114.35 207.866 114.35 Z" fill="#000000" fill-rule="evenodd" fill-opacity="1" /><path clip-path="url(#clip560)" d="M232.487 97.3548 L222.895 112.345 L232.487 112.345 L232.487 97.3548 M231.49 94.0447 L236.267 94.0447 L236.267 112.345 L240.274 112.345 L240.274 115.504 L236.267 115.504 L236.267 122.125 L232.487 122.125 L232.487 115.504 L219.811 115.504 L219.811 111.837 L231.49 94.0447 Z" fill="#000000" fill-rule="evenodd" fill-opacity="1" /><path clip-path="url(#clip562)" d="
M390.484 153.927 L390.484 1486.45 L1211.84 1486.45 L1211.84 153.927 L390.484 153.927 L390.484 153.927  Z
  " fill="#2b5fe9" fill-rule="evenodd" fill-opacity="1"/>
<polyline clip-path="url(#clip562)" style="stroke:#000000; stroke-linecap:butt; stroke-linejoin:round; stroke-width:4.8; stroke-opacity:1; fill:none" points="
  390.484,153.927 390.484,1486.45 1211.84,1486.45 1211.84,153.927 390.484,153.927 
  "/>
<path clip-path="url(#clip562)" d="
M1417.18 1220.76 L1417.18 1486.45 L2238.55 1486.45 L2238.55 1220.76 L1417.18 1220.76 L1417.18 1220.76  Z
  " fill="#aa30ff" fill-rule="evenodd" fill-opacity="1"/>
<polyline clip-path="url(#clip562)" style="stroke:#000000; stroke-linecap:butt; stroke-linejoin:round; stroke-width:4.8; stroke-opacity:1; fill:none" points="
  1417.18,1220.76 1417.18,1486.45 2238.55,1486.45 2238.55,1220.76 1417.18,1220.76 
  "/>
<circle clip-path="url(#clip562)" style="fill:#ee7733; stroke:none; fill-opacity:0" cx="801.164" cy="153.927" r="2"/>
<circle clip-path="url(#clip562)" style="fill:#ee7733; stroke:none; fill-opacity:0" cx="1827.87" cy="1220.76" r="2"/>
<path clip-path="url(#clip560)" d="M734.695 113.931 L751.014 113.931 L751.014 117.866 L729.07 117.866 L729.07 113.931 Q731.732 111.176 736.315 106.546 Q740.921 101.894 742.102 100.551 Q744.347 98.0279 745.227 96.2918 Q746.13 94.5325 746.13 92.8427 Q746.13 90.0881 744.185 88.352 Q742.264 86.6159 739.162 86.6159 Q736.963 86.6159 734.509 87.3798 Q732.079 88.1437 729.301 89.6946 L729.301 84.9724 Q732.125 83.8381 734.579 83.2594 Q737.033 82.6807 739.07 82.6807 Q744.44 82.6807 747.634 85.3659 Q750.829 88.0511 750.829 92.5418 Q750.829 94.6714 750.019 96.5927 Q749.232 98.4908 747.125 101.083 Q746.546 101.755 743.445 104.972 Q740.343 108.167 734.695 113.931 Z" fill="#000000" fill-rule="evenodd" fill-opacity="1" /><path clip-path="url(#clip560)" d="M760.968 117.148 L760.968 112.889 Q762.727 113.722 764.532 114.162 Q766.338 114.602 768.074 114.602 Q772.704 114.602 775.134 111.5 Q777.588 108.375 777.935 102.032 Q776.593 104.023 774.532 105.088 Q772.472 106.153 769.972 106.153 Q764.787 106.153 761.755 103.028 Q758.745 99.8797 758.745 94.4399 Q758.745 89.1159 761.894 85.8983 Q765.042 82.6807 770.273 82.6807 Q776.268 82.6807 779.417 87.2872 Q782.588 91.8705 782.588 100.62 Q782.588 108.792 778.699 113.676 Q774.833 118.537 768.282 118.537 Q766.523 118.537 764.718 118.19 Q762.912 117.843 760.968 117.148 M770.273 102.495 Q773.421 102.495 775.25 100.343 Q777.102 98.1899 777.102 94.4399 Q777.102 90.7131 775.25 88.5603 Q773.421 86.3844 770.273 86.3844 Q767.125 86.3844 765.273 88.5603 Q763.444 90.7131 763.444 94.4399 Q763.444 98.1899 765.273 100.343 Q767.125 102.495 770.273 102.495 Z" fill="#000000" fill-rule="evenodd" fill-opacity="1" /><path clip-path="url(#clip560)" d="M805.157 99.2316 Q808.514 99.9492 810.389 102.218 Q812.287 104.486 812.287 107.819 Q812.287 112.935 808.768 115.736 Q805.25 118.537 798.768 118.537 Q796.592 118.537 794.278 118.097 Q791.986 117.681 789.532 116.824 L789.532 112.31 Q791.477 113.444 793.792 114.023 Q796.106 114.602 798.629 114.602 Q803.028 114.602 805.319 112.866 Q807.634 111.13 807.634 107.819 Q807.634 104.764 805.481 103.051 Q803.352 101.315 799.532 101.315 L795.504 101.315 L795.504 97.4723 L799.717 97.4723 Q803.166 97.4723 804.995 96.1066 Q806.824 94.7177 806.824 92.1251 Q806.824 89.4631 804.926 88.0511 Q803.051 86.6159 799.532 86.6159 Q797.611 86.6159 795.412 87.0326 Q793.213 87.4492 790.574 88.3289 L790.574 84.1622 Q793.236 83.4215 795.551 83.0511 Q797.889 82.6807 799.949 82.6807 Q805.273 82.6807 808.375 85.1113 Q811.477 87.5187 811.477 91.639 Q811.477 94.5094 809.833 96.5001 Q808.19 98.4677 805.157 99.2316 Z" fill="#000000" fill-rule="evenodd" fill-opacity="1" /><path clip-path="url(#clip560)" d="M831.152 101.454 Q827.819 101.454 825.898 103.236 Q824 105.019 824 108.144 Q824 111.269 825.898 113.051 Q827.819 114.833 831.152 114.833 Q834.486 114.833 836.407 113.051 Q838.328 111.245 838.328 108.144 Q838.328 105.019 836.407 103.236 Q834.509 101.454 831.152 101.454 M826.477 99.4631 Q823.467 98.7223 821.777 96.6621 Q820.111 94.602 820.111 91.639 Q820.111 87.4955 823.051 85.0881 Q826.014 82.6807 831.152 82.6807 Q836.314 82.6807 839.254 85.0881 Q842.194 87.4955 842.194 91.639 Q842.194 94.602 840.504 96.6621 Q838.838 98.7223 835.851 99.4631 Q839.231 100.25 841.106 102.542 Q843.004 104.833 843.004 108.144 Q843.004 113.167 839.926 115.852 Q836.87 118.537 831.152 118.537 Q825.435 118.537 822.356 115.852 Q819.301 113.167 819.301 108.144 Q819.301 104.833 821.199 102.542 Q823.097 100.25 826.477 99.4631 M824.764 92.0788 Q824.764 94.764 826.43 96.2686 Q828.12 97.7732 831.152 97.7732 Q834.162 97.7732 835.851 96.2686 Q837.564 94.764 837.564 92.0788 Q837.564 89.3937 835.851 87.889 Q834.162 86.3844 831.152 86.3844 Q828.12 86.3844 826.43 87.889 Q824.764 89.3937 824.764 92.0788 Z" fill="#000000" fill-rule="evenodd" fill-opacity="1" /><path clip-path="url(#clip560)" d="M861.314 86.3844 Q857.703 86.3844 855.875 89.9492 Q854.069 93.4909 854.069 100.62 Q854.069 107.727 855.875 111.292 Q857.703 114.833 861.314 114.833 Q864.949 114.833 866.754 111.292 Q868.583 107.727 868.583 100.62 Q868.583 93.4909 866.754 89.9492 Q864.949 86.3844 861.314 86.3844 M861.314 82.6807 Q867.124 82.6807 870.18 87.2872 Q873.259 91.8705 873.259 100.62 Q873.259 109.347 870.18 113.954 Q867.124 118.537 861.314 118.537 Q855.504 118.537 852.425 113.954 Q849.37 109.347 849.37 100.62 Q849.37 91.8705 852.425 87.2872 Q855.504 82.6807 861.314 82.6807 Z" fill="#000000" fill-rule="evenodd" fill-opacity="1" /><path clip-path="url(#clip560)" d="M1772.45 1150.14 L1790.81 1150.14 L1790.81 1154.07 L1776.73 1154.07 L1776.73 1162.55 Q1777.75 1162.2 1778.77 1162.04 Q1779.79 1161.85 1780.81 1161.85 Q1786.59 1161.85 1789.97 1165.02 Q1793.35 1168.19 1793.35 1173.61 Q1793.35 1179.19 1789.88 1182.29 Q1786.41 1185.37 1780.09 1185.37 Q1777.91 1185.37 1775.64 1185 Q1773.4 1184.63 1770.99 1183.89 L1770.99 1179.19 Q1773.07 1180.32 1775.3 1180.88 Q1777.52 1181.43 1780 1181.43 Q1784 1181.43 1786.34 1179.33 Q1788.68 1177.22 1788.68 1173.61 Q1788.68 1170 1786.34 1167.89 Q1784 1165.79 1780 1165.79 Q1778.12 1165.79 1776.25 1166.2 Q1774.39 1166.62 1772.45 1167.5 L1772.45 1150.14 Z" fill="#000000" fill-rule="evenodd" fill-opacity="1" /><path clip-path="url(#clip560)" d="M1812.56 1168.29 Q1809.23 1168.29 1807.31 1170.07 Q1805.41 1171.85 1805.41 1174.98 Q1805.41 1178.1 1807.31 1179.88 Q1809.23 1181.67 1812.56 1181.67 Q1815.9 1181.67 1817.82 1179.88 Q1819.74 1178.08 1819.74 1174.98 Q1819.74 1171.85 1817.82 1170.07 Q1815.92 1168.29 1812.56 1168.29 M1807.89 1166.3 Q1804.88 1165.56 1803.19 1163.49 Q1801.52 1161.43 1801.52 1158.47 Q1801.52 1154.33 1804.46 1151.92 Q1807.43 1149.51 1812.56 1149.51 Q1817.73 1149.51 1820.67 1151.92 Q1823.61 1154.33 1823.61 1158.47 Q1823.61 1161.43 1821.92 1163.49 Q1820.25 1165.56 1817.26 1166.3 Q1820.64 1167.08 1822.52 1169.37 Q1824.42 1171.67 1824.42 1174.98 Q1824.42 1180 1821.34 1182.68 Q1818.28 1185.37 1812.56 1185.37 Q1806.85 1185.37 1803.77 1182.68 Q1800.71 1180 1800.71 1174.98 Q1800.71 1171.67 1802.61 1169.37 Q1804.51 1167.08 1807.89 1166.3 M1806.18 1158.91 Q1806.18 1161.6 1807.84 1163.1 Q1809.53 1164.61 1812.56 1164.61 Q1815.57 1164.61 1817.26 1163.1 Q1818.98 1161.6 1818.98 1158.91 Q1818.98 1156.23 1817.26 1154.72 Q1815.57 1153.22 1812.56 1153.22 Q1809.53 1153.22 1807.84 1154.72 Q1806.18 1156.23 1806.18 1158.91 Z" fill="#000000" fill-rule="evenodd" fill-opacity="1" /><path clip-path="url(#clip560)" d="M1832.77 1150.14 L1851.13 1150.14 L1851.13 1154.07 L1837.06 1154.07 L1837.06 1162.55 Q1838.07 1162.2 1839.09 1162.04 Q1840.11 1161.85 1841.13 1161.85 Q1846.92 1161.85 1850.3 1165.02 Q1853.68 1168.19 1853.68 1173.61 Q1853.68 1179.19 1850.2 1182.29 Q1846.73 1185.37 1840.41 1185.37 Q1838.24 1185.37 1835.97 1185 Q1833.72 1184.63 1831.31 1183.89 L1831.31 1179.19 Q1833.4 1180.32 1835.62 1180.88 Q1837.84 1181.43 1840.32 1181.43 Q1844.32 1181.43 1846.66 1179.33 Q1849 1177.22 1849 1173.61 Q1849 1170 1846.66 1167.89 Q1844.32 1165.79 1840.32 1165.79 Q1838.44 1165.79 1836.57 1166.2 Q1834.72 1166.62 1832.77 1167.5 L1832.77 1150.14 Z" fill="#000000" fill-rule="evenodd" fill-opacity="1" /><path clip-path="url(#clip560)" d="M1872.89 1168.29 Q1869.55 1168.29 1867.63 1170.07 Q1865.74 1171.85 1865.74 1174.98 Q1865.74 1178.1 1867.63 1179.88 Q1869.55 1181.67 1872.89 1181.67 Q1876.22 1181.67 1878.14 1179.88 Q1880.06 1178.08 1880.06 1174.98 Q1880.06 1171.85 1878.14 1170.07 Q1876.24 1168.29 1872.89 1168.29 M1868.21 1166.3 Q1865.2 1165.56 1863.51 1163.49 Q1861.85 1161.43 1861.85 1158.47 Q1861.85 1154.33 1864.79 1151.92 Q1867.75 1149.51 1872.89 1149.51 Q1878.05 1149.51 1880.99 1151.92 Q1883.93 1154.33 1883.93 1158.47 Q1883.93 1161.43 1882.24 1163.49 Q1880.57 1165.56 1877.59 1166.3 Q1880.97 1167.08 1882.84 1169.37 Q1884.74 1171.67 1884.74 1174.98 Q1884.74 1180 1881.66 1182.68 Q1878.61 1185.37 1872.89 1185.37 Q1867.17 1185.37 1864.09 1182.68 Q1861.04 1180 1861.04 1174.98 Q1861.04 1171.67 1862.93 1169.37 Q1864.83 1167.08 1868.21 1166.3 M1866.5 1158.91 Q1866.5 1161.6 1868.17 1163.1 Q1869.86 1164.61 1872.89 1164.61 Q1875.9 1164.61 1877.59 1163.1 Q1879.3 1161.6 1879.3 1158.91 Q1879.3 1156.23 1877.59 1154.72 Q1875.9 1153.22 1872.89 1153.22 Q1869.86 1153.22 1868.17 1154.72 Q1866.5 1156.23 1866.5 1158.91 Z" fill="#000000" fill-rule="evenodd" fill-opacity="1" /></svg>
