<?xml version="1.0" encoding="utf-8"?>
<svg xmlns="http://www.w3.org/2000/svg" xmlns:xlink="http://www.w3.org/1999/xlink" width="600" height="400" viewBox="0 0 2400 1600">
<defs>
  <clipPath id="clip360">
    <rect x="0" y="0" width="2400" height="1600"/>
  </clipPath>
</defs>
<path clip-path="url(#clip360)" d="
M0 1600 L2400 1600 L2400 0 L0 0  Z
  " fill="#ffffff" fill-rule="evenodd" fill-opacity="1"/>
<defs>
  <clipPath id="clip361">
    <rect x="480" y="0" width="1681" height="1600"/>
  </clipPath>
</defs>
<path clip-path="url(#clip360)" d="
M304.141 1486.45 L2352.76 1486.45 L2352.76 47.2441 L304.141 47.2441  Z
  " fill="#ffffff" fill-rule="evenodd" fill-opacity="1"/>
<defs>
  <clipPath id="clip362">
    <rect x="304" y="47" width="2050" height="1440"/>
  </clipPath>
</defs>
<polyline clip-path="url(#clip362)" style="stroke:#222255; stroke-linecap:butt; stroke-linejoin:round; stroke-width:2; stroke-opacity:0.1; fill:none" points="
  523.571,1486.45 523.571,47.2441 
  "/>
<polyline clip-path="url(#clip362)" style="stroke:#222255; stroke-linecap:butt; stroke-linejoin:round; stroke-width:2; stroke-opacity:0.1; fill:none" points="
  820.355,1486.45 820.355,47.2441 
  "/>
<polyline clip-path="url(#clip362)" style="stroke:#222255; stroke-linecap:butt; stroke-linejoin:round; stroke-width:2; stroke-opacity:0.1; fill:none" points="
  1117.14,1486.45 1117.14,47.2441 
  "/>
<polyline clip-path="url(#clip362)" style="stroke:#222255; stroke-linecap:butt; stroke-linejoin:round; stroke-width:2; stroke-opacity:0.1; fill:none" points="
  1413.92,1486.45 1413.92,47.2441 
  "/>
<polyline clip-path="url(#clip362)" style="stroke:#222255; stroke-linecap:butt; stroke-linejoin:round; stroke-width:2; stroke-opacity:0.1; fill:none" points="
  1710.71,1486.45 1710.71,47.2441 
  "/>
<polyline clip-path="url(#clip362)" style="stroke:#222255; stroke-linecap:butt; stroke-linejoin:round; stroke-width:2; stroke-opacity:0.1; fill:none" points="
  2168.94,1486.45 2168.94,47.2441 
  "/>
<polyline clip-path="url(#clip362)" style="stroke:#222255; stroke-linecap:butt; stroke-linejoin:round; stroke-width:2; stroke-opacity:0.05; fill:none" points="
  345.501,1486.45 345.501,47.2441 
  "/>
<polyline clip-path="url(#clip362)" style="stroke:#222255; stroke-linecap:butt; stroke-linejoin:round; stroke-width:2; stroke-opacity:0.05; fill:none" points="
  404.857,1486.45 404.857,47.2441 
  "/>
<polyline clip-path="url(#clip362)" style="stroke:#222255; stroke-linecap:butt; stroke-linejoin:round; stroke-width:2; stroke-opacity:0.05; fill:none" points="
  464.214,1486.45 464.214,47.2441 
  "/>
<polyline clip-path="url(#clip362)" style="stroke:#222255; stroke-linecap:butt; stroke-linejoin:round; stroke-width:2; stroke-opacity:0.05; fill:none" points="
  582.928,1486.45 582.928,47.2441 
  "/>
<polyline clip-path="url(#clip362)" style="stroke:#222255; stroke-linecap:butt; stroke-linejoin:round; stroke-width:2; stroke-opacity:0.05; fill:none" points="
  642.284,1486.45 642.284,47.2441 
  "/>
<polyline clip-path="url(#clip362)" style="stroke:#222255; stroke-linecap:butt; stroke-linejoin:round; stroke-width:2; stroke-opacity:0.05; fill:none" points="
  701.641,1486.45 701.641,47.2441 
  "/>
<polyline clip-path="url(#clip362)" style="stroke:#222255; stroke-linecap:butt; stroke-linejoin:round; stroke-width:2; stroke-opacity:0.05; fill:none" points="
  760.998,1486.45 760.998,47.2441 
  "/>
<polyline clip-path="url(#clip362)" style="stroke:#222255; stroke-linecap:butt; stroke-linejoin:round; stroke-width:2; stroke-opacity:0.05; fill:none" points="
  879.711,1486.45 879.711,47.2441 
  "/>
<polyline clip-path="url(#clip362)" style="stroke:#222255; stroke-linecap:butt; stroke-linejoin:round; stroke-width:2; stroke-opacity:0.05; fill:none" points="
  939.068,1486.45 939.068,47.2441 
  "/>
<polyline clip-path="url(#clip362)" style="stroke:#222255; stroke-linecap:butt; stroke-linejoin:round; stroke-width:2; stroke-opacity:0.05; fill:none" points="
  998.425,1486.45 998.425,47.2441 
  "/>
<polyline clip-path="url(#clip362)" style="stroke:#222255; stroke-linecap:butt; stroke-linejoin:round; stroke-width:2; stroke-opacity:0.05; fill:none" points="
  1057.78,1486.45 1057.78,47.2441 
  "/>
<polyline clip-path="url(#clip362)" style="stroke:#222255; stroke-linecap:butt; stroke-linejoin:round; stroke-width:2; stroke-opacity:0.05; fill:none" points="
  1176.5,1486.45 1176.5,47.2441 
  "/>
<polyline clip-path="url(#clip362)" style="stroke:#222255; stroke-linecap:butt; stroke-linejoin:round; stroke-width:2; stroke-opacity:0.05; fill:none" points="
  1235.85,1486.45 1235.85,47.2441 
  "/>
<polyline clip-path="url(#clip362)" style="stroke:#222255; stroke-linecap:butt; stroke-linejoin:round; stroke-width:2; stroke-opacity:0.05; fill:none" points="
  1295.21,1486.45 1295.21,47.2441 
  "/>
<polyline clip-path="url(#clip362)" style="stroke:#222255; stroke-linecap:butt; stroke-linejoin:round; stroke-width:2; stroke-opacity:0.05; fill:none" points="
  1354.57,1486.45 1354.57,47.2441 
  "/>
<polyline clip-path="url(#clip362)" style="stroke:#222255; stroke-linecap:butt; stroke-linejoin:round; stroke-width:2; stroke-opacity:0.05; fill:none" points="
  1473.28,1486.45 1473.28,47.2441 
  "/>
<polyline clip-path="url(#clip362)" style="stroke:#222255; stroke-linecap:butt; stroke-linejoin:round; stroke-width:2; stroke-opacity:0.05; fill:none" points="
  1532.64,1486.45 1532.64,47.2441 
  "/>
<polyline clip-path="url(#clip362)" style="stroke:#222255; stroke-linecap:butt; stroke-linejoin:round; stroke-width:2; stroke-opacity:0.05; fill:none" points="
  1591.99,1486.45 1591.99,47.2441 
  "/>
<polyline clip-path="url(#clip362)" style="stroke:#222255; stroke-linecap:butt; stroke-linejoin:round; stroke-width:2; stroke-opacity:0.05; fill:none" points="
  1651.35,1486.45 1651.35,47.2441 
  "/>
<polyline clip-path="url(#clip362)" style="stroke:#222255; stroke-linecap:butt; stroke-linejoin:round; stroke-width:2; stroke-opacity:0.05; fill:none" points="
  1802.35,1486.45 1802.35,47.2441 
  "/>
<polyline clip-path="url(#clip362)" style="stroke:#222255; stroke-linecap:butt; stroke-linejoin:round; stroke-width:2; stroke-opacity:0.05; fill:none" points="
  1894,1486.45 1894,47.2441 
  "/>
<polyline clip-path="url(#clip362)" style="stroke:#222255; stroke-linecap:butt; stroke-linejoin:round; stroke-width:2; stroke-opacity:0.05; fill:none" points="
  1985.65,1486.45 1985.65,47.2441 
  "/>
<polyline clip-path="url(#clip362)" style="stroke:#222255; stroke-linecap:butt; stroke-linejoin:round; stroke-width:2; stroke-opacity:0.05; fill:none" points="
  2077.29,1486.45 2077.29,47.2441 
  "/>
<polyline clip-path="url(#clip362)" style="stroke:#222255; stroke-linecap:butt; stroke-linejoin:round; stroke-width:2; stroke-opacity:0.05; fill:none" points="
  2260.59,1486.45 2260.59,47.2441 
  "/>
<polyline clip-path="url(#clip362)" style="stroke:#222255; stroke-linecap:butt; stroke-linejoin:round; stroke-width:2; stroke-opacity:0.05; fill:none" points="
  2352.23,1486.45 2352.23,47.2441 
  "/>
<polyline clip-path="url(#clip360)" style="stroke:#222255; stroke-linecap:butt; stroke-linejoin:round; stroke-width:4; stroke-opacity:0; fill:none" points="
  523.571,1486.45 523.571,1467.55 
  "/>
<polyline clip-path="url(#clip360)" style="stroke:#222255; stroke-linecap:butt; stroke-linejoin:round; stroke-width:4; stroke-opacity:0; fill:none" points="
  820.355,1486.45 820.355,1467.55 
  "/>
<polyline clip-path="url(#clip360)" style="stroke:#222255; stroke-linecap:butt; stroke-linejoin:round; stroke-width:4; stroke-opacity:0; fill:none" points="
  1117.14,1486.45 1117.14,1467.55 
  "/>
<polyline clip-path="url(#clip360)" style="stroke:#222255; stroke-linecap:butt; stroke-linejoin:round; stroke-width:4; stroke-opacity:0; fill:none" points="
  1413.92,1486.45 1413.92,1467.55 
  "/>
<polyline clip-path="url(#clip360)" style="stroke:#222255; stroke-linecap:butt; stroke-linejoin:round; stroke-width:4; stroke-opacity:0; fill:none" points="
  1710.71,1486.45 1710.71,1467.55 
  "/>
<polyline clip-path="url(#clip360)" style="stroke:#222255; stroke-linecap:butt; stroke-linejoin:round; stroke-width:4; stroke-opacity:0; fill:none" points="
  2168.94,1486.45 2168.94,1467.55 
  "/>
<polyline clip-path="url(#clip360)" style="stroke:#222255; stroke-linecap:butt; stroke-linejoin:round; stroke-width:4; stroke-opacity:0; fill:none" points="
  345.501,1486.45 345.501,1477 
  "/>
<polyline clip-path="url(#clip360)" style="stroke:#222255; stroke-linecap:butt; stroke-linejoin:round; stroke-width:4; stroke-opacity:0; fill:none" points="
  404.857,1486.45 404.857,1477 
  "/>
<polyline clip-path="url(#clip360)" style="stroke:#222255; stroke-linecap:butt; stroke-linejoin:round; stroke-width:4; stroke-opacity:0; fill:none" points="
  464.214,1486.45 464.214,1477 
  "/>
<polyline clip-path="url(#clip360)" style="stroke:#222255; stroke-linecap:butt; stroke-linejoin:round; stroke-width:4; stroke-opacity:0; fill:none" points="
  582.928,1486.45 582.928,1477 
  "/>
<polyline clip-path="url(#clip360)" style="stroke:#222255; stroke-linecap:butt; stroke-linejoin:round; stroke-width:4; stroke-opacity:0; fill:none" points="
  642.284,1486.45 642.284,1477 
  "/>
<polyline clip-path="url(#clip360)" style="stroke:#222255; stroke-linecap:butt; stroke-linejoin:round; stroke-width:4; stroke-opacity:0; fill:none" points="
  701.641,1486.45 701.641,1477 
  "/>
<polyline clip-path="url(#clip360)" style="stroke:#222255; stroke-linecap:butt; stroke-linejoin:round; stroke-width:4; stroke-opacity:0; fill:none" points="
  760.998,1486.45 760.998,1477 
  "/>
<polyline clip-path="url(#clip360)" style="stroke:#222255; stroke-linecap:butt; stroke-linejoin:round; stroke-width:4; stroke-opacity:0; fill:none" points="
  879.711,1486.45 879.711,1477 
  "/>
<polyline clip-path="url(#clip360)" style="stroke:#222255; stroke-linecap:butt; stroke-linejoin:round; stroke-width:4; stroke-opacity:0; fill:none" points="
  939.068,1486.45 939.068,1477 
  "/>
<polyline clip-path="url(#clip360)" style="stroke:#222255; stroke-linecap:butt; stroke-linejoin:round; stroke-width:4; stroke-opacity:0; fill:none" points="
  998.425,1486.45 998.425,1477 
  "/>
<polyline clip-path="url(#clip360)" style="stroke:#222255; stroke-linecap:butt; stroke-linejoin:round; stroke-width:4; stroke-opacity:0; fill:none" points="
  1057.78,1486.45 1057.78,1477 
  "/>
<polyline clip-path="url(#clip360)" style="stroke:#222255; stroke-linecap:butt; stroke-linejoin:round; stroke-width:4; stroke-opacity:0; fill:none" points="
  1176.5,1486.45 1176.5,1477 
  "/>
<polyline clip-path="url(#clip360)" style="stroke:#222255; stroke-linecap:butt; stroke-linejoin:round; stroke-width:4; stroke-opacity:0; fill:none" points="
  1235.85,1486.45 1235.85,1477 
  "/>
<polyline clip-path="url(#clip360)" style="stroke:#222255; stroke-linecap:butt; stroke-linejoin:round; stroke-width:4; stroke-opacity:0; fill:none" points="
  1295.21,1486.45 1295.21,1477 
  "/>
<polyline clip-path="url(#clip360)" style="stroke:#222255; stroke-linecap:butt; stroke-linejoin:round; stroke-width:4; stroke-opacity:0; fill:none" points="
  1354.57,1486.45 1354.57,1477 
  "/>
<polyline clip-path="url(#clip360)" style="stroke:#222255; stroke-linecap:butt; stroke-linejoin:round; stroke-width:4; stroke-opacity:0; fill:none" points="
  1473.28,1486.45 1473.28,1477 
  "/>
<polyline clip-path="url(#clip360)" style="stroke:#222255; stroke-linecap:butt; stroke-linejoin:round; stroke-width:4; stroke-opacity:0; fill:none" points="
  1532.64,1486.45 1532.64,1477 
  "/>
<polyline clip-path="url(#clip360)" style="stroke:#222255; stroke-linecap:butt; stroke-linejoin:round; stroke-width:4; stroke-opacity:0; fill:none" points="
  1591.99,1486.45 1591.99,1477 
  "/>
<polyline clip-path="url(#clip360)" style="stroke:#222255; stroke-linecap:butt; stroke-linejoin:round; stroke-width:4; stroke-opacity:0; fill:none" points="
  1651.35,1486.45 1651.35,1477 
  "/>
<polyline clip-path="url(#clip360)" style="stroke:#222255; stroke-linecap:butt; stroke-linejoin:round; stroke-width:4; stroke-opacity:0; fill:none" points="
  1802.35,1486.45 1802.35,1477 
  "/>
<polyline clip-path="url(#clip360)" style="stroke:#222255; stroke-linecap:butt; stroke-linejoin:round; stroke-width:4; stroke-opacity:0; fill:none" points="
  1894,1486.45 1894,1477 
  "/>
<polyline clip-path="url(#clip360)" style="stroke:#222255; stroke-linecap:butt; stroke-linejoin:round; stroke-width:4; stroke-opacity:0; fill:none" points="
  1985.65,1486.45 1985.65,1477 
  "/>
<polyline clip-path="url(#clip360)" style="stroke:#222255; stroke-linecap:butt; stroke-linejoin:round; stroke-width:4; stroke-opacity:0; fill:none" points="
  2077.29,1486.45 2077.29,1477 
  "/>
<polyline clip-path="url(#clip360)" style="stroke:#222255; stroke-linecap:butt; stroke-linejoin:round; stroke-width:4; stroke-opacity:0; fill:none" points="
  2260.59,1486.45 2260.59,1477 
  "/>
<polyline clip-path="url(#clip360)" style="stroke:#222255; stroke-linecap:butt; stroke-linejoin:round; stroke-width:4; stroke-opacity:0; fill:none" points="
  2352.23,1486.45 2352.23,1477 
  "/>
<path clip-path="url(#clip360)" d="M411.199 1514.29 L415.875 1514.29 L415.875 1546.44 Q415.875 1552.69 413.49 1555.51 Q411.129 1558.34 405.875 1558.34 L404.092 1558.34 L404.092 1554.4 L405.551 1554.4 Q408.653 1554.4 409.926 1552.67 Q411.199 1550.93 411.199 1546.44 L411.199 1514.29 Z" fill="#000000" fill-rule="evenodd" fill-opacity="1" /><path clip-path="url(#clip360)" d="M436.777 1535.82 Q431.615 1535.82 429.625 1537 Q427.634 1538.18 427.634 1541.02 Q427.634 1543.29 429.115 1544.63 Q430.62 1545.95 433.189 1545.95 Q436.731 1545.95 438.861 1543.45 Q441.013 1540.93 441.013 1536.76 L441.013 1535.82 L436.777 1535.82 M445.273 1534.06 L445.273 1548.85 L441.013 1548.85 L441.013 1544.91 Q439.555 1547.27 437.379 1548.41 Q435.203 1549.52 432.055 1549.52 Q428.074 1549.52 425.713 1547.3 Q423.375 1545.05 423.375 1541.3 Q423.375 1536.93 426.291 1534.7 Q429.231 1532.48 435.041 1532.48 L441.013 1532.48 L441.013 1532.07 Q441.013 1529.13 439.069 1527.53 Q437.148 1525.91 433.652 1525.91 Q431.43 1525.91 429.324 1526.44 Q427.217 1526.97 425.273 1528.04 L425.273 1524.1 Q427.611 1523.2 429.81 1522.76 Q432.009 1522.3 434.092 1522.3 Q439.717 1522.3 442.495 1525.21 Q445.273 1528.13 445.273 1534.06 Z" fill="#000000" fill-rule="evenodd" fill-opacity="1" /><path clip-path="url(#clip360)" d="M450.99 1522.92 L455.504 1522.92 L463.606 1544.68 L471.708 1522.92 L476.222 1522.92 L466.499 1548.85 L460.712 1548.85 L450.99 1522.92 Z" fill="#000000" fill-rule="evenodd" fill-opacity="1" /><path clip-path="url(#clip360)" d="M493.884 1535.82 Q488.722 1535.82 486.731 1537 Q484.74 1538.18 484.74 1541.02 Q484.74 1543.29 486.222 1544.63 Q487.726 1545.95 490.296 1545.95 Q493.837 1545.95 495.967 1543.45 Q498.12 1540.93 498.12 1536.76 L498.12 1535.82 L493.884 1535.82 M502.379 1534.06 L502.379 1548.85 L498.12 1548.85 L498.12 1544.91 Q496.661 1547.27 494.485 1548.41 Q492.309 1549.52 489.161 1549.52 Q485.18 1549.52 482.819 1547.3 Q480.481 1545.05 480.481 1541.3 Q480.481 1536.93 483.397 1534.7 Q486.337 1532.48 492.147 1532.48 L498.12 1532.48 L498.12 1532.07 Q498.12 1529.13 496.175 1527.53 Q494.254 1525.91 490.759 1525.91 Q488.536 1525.91 486.43 1526.44 Q484.323 1526.97 482.379 1528.04 L482.379 1524.1 Q484.717 1523.2 486.916 1522.76 Q489.115 1522.3 491.198 1522.3 Q496.823 1522.3 499.601 1525.21 Q502.379 1528.13 502.379 1534.06 Z" fill="#000000" fill-rule="evenodd" fill-opacity="1" /><path clip-path="url(#clip360)" d="M532.055 1515.42 L532.055 1519.98 Q529.393 1518.71 527.032 1518.08 Q524.67 1517.46 522.471 1517.46 Q518.652 1517.46 516.569 1518.94 Q514.508 1520.42 514.508 1523.15 Q514.508 1525.45 515.874 1526.63 Q517.263 1527.78 521.106 1528.5 L523.93 1529.08 Q529.161 1530.07 531.638 1532.6 Q534.138 1535.1 534.138 1539.31 Q534.138 1544.33 530.758 1546.93 Q527.402 1549.52 520.897 1549.52 Q518.444 1549.52 515.666 1548.96 Q512.911 1548.41 509.948 1547.32 L509.948 1542.51 Q512.795 1544.1 515.527 1544.91 Q518.258 1545.72 520.897 1545.72 Q524.902 1545.72 527.078 1544.15 Q529.254 1542.57 529.254 1539.66 Q529.254 1537.11 527.68 1535.68 Q526.129 1534.24 522.564 1533.52 L519.717 1532.97 Q514.485 1531.93 512.147 1529.7 Q509.809 1527.48 509.809 1523.52 Q509.809 1518.94 513.027 1516.3 Q516.268 1513.66 521.939 1513.66 Q524.369 1513.66 526.893 1514.1 Q529.416 1514.54 532.055 1515.42 Z" fill="#000000" fill-rule="evenodd" fill-opacity="1" /><path clip-path="url(#clip360)" d="M559.902 1523.92 L559.902 1527.9 Q558.096 1526.9 556.267 1526.42 Q554.462 1525.91 552.61 1525.91 Q548.467 1525.91 546.175 1528.55 Q543.883 1531.16 543.883 1535.91 Q543.883 1540.65 546.175 1543.29 Q548.467 1545.91 552.61 1545.91 Q554.462 1545.91 556.267 1545.42 Q558.096 1544.91 559.902 1543.92 L559.902 1547.85 Q558.119 1548.69 556.198 1549.1 Q554.3 1549.52 552.147 1549.52 Q546.291 1549.52 542.842 1545.84 Q539.393 1542.16 539.393 1535.91 Q539.393 1529.57 542.865 1525.93 Q546.36 1522.3 552.425 1522.3 Q554.392 1522.3 556.267 1522.71 Q558.142 1523.11 559.902 1523.92 Z" fill="#000000" fill-rule="evenodd" fill-opacity="1" /><path clip-path="url(#clip360)" d="M582.332 1526.9 Q581.615 1526.49 580.758 1526.3 Q579.925 1526.09 578.906 1526.09 Q575.295 1526.09 573.351 1528.45 Q571.429 1530.79 571.429 1535.19 L571.429 1548.85 L567.147 1548.85 L567.147 1522.92 L571.429 1522.92 L571.429 1526.95 Q572.772 1524.59 574.925 1523.45 Q577.078 1522.3 580.156 1522.3 Q580.596 1522.3 581.128 1522.37 Q581.661 1522.41 582.309 1522.53 L582.332 1526.9 Z" fill="#000000" fill-rule="evenodd" fill-opacity="1" /><path clip-path="url(#clip360)" d="M586.8 1522.92 L591.059 1522.92 L591.059 1548.85 L586.8 1548.85 L586.8 1522.92 M586.8 1512.83 L591.059 1512.83 L591.059 1518.22 L586.8 1518.22 L586.8 1512.83 Z" fill="#000000" fill-rule="evenodd" fill-opacity="1" /><path clip-path="url(#clip360)" d="M604.091 1544.96 L604.091 1558.71 L599.809 1558.71 L599.809 1522.92 L604.091 1522.92 L604.091 1526.86 Q605.434 1524.54 607.471 1523.43 Q609.531 1522.3 612.378 1522.3 Q617.1 1522.3 620.04 1526.05 Q623.003 1529.8 623.003 1535.91 Q623.003 1542.02 620.04 1545.77 Q617.1 1549.52 612.378 1549.52 Q609.531 1549.52 607.471 1548.41 Q605.434 1547.27 604.091 1544.96 M618.582 1535.91 Q618.582 1531.21 616.638 1528.55 Q614.716 1525.86 611.337 1525.86 Q607.957 1525.86 606.013 1528.55 Q604.091 1531.21 604.091 1535.91 Q604.091 1540.61 606.013 1543.29 Q607.957 1545.95 611.337 1545.95 Q614.716 1545.95 616.638 1543.29 Q618.582 1540.61 618.582 1535.91 Z" fill="#000000" fill-rule="evenodd" fill-opacity="1" /><path clip-path="url(#clip360)" d="M634.276 1515.56 L634.276 1522.92 L643.049 1522.92 L643.049 1526.23 L634.276 1526.23 L634.276 1540.31 Q634.276 1543.48 635.133 1544.38 Q636.012 1545.28 638.674 1545.28 L643.049 1545.28 L643.049 1548.85 L638.674 1548.85 Q633.744 1548.85 631.869 1547.02 Q629.994 1545.17 629.994 1540.31 L629.994 1526.23 L626.869 1526.23 L626.869 1522.92 L629.994 1522.92 L629.994 1515.56 L634.276 1515.56 Z" fill="#000000" fill-rule="evenodd" fill-opacity="1" /><path clip-path="url(#clip360)" d="M804.232 1516.95 L804.232 1521.88 Q801.871 1519.68 799.186 1518.59 Q796.524 1517.51 793.514 1517.51 Q787.589 1517.51 784.44 1521.14 Q781.292 1524.75 781.292 1531.6 Q781.292 1538.43 784.44 1542.07 Q787.589 1545.68 793.514 1545.68 Q796.524 1545.68 799.186 1544.59 Q801.871 1543.5 804.232 1541.3 L804.232 1546.19 Q801.778 1547.85 799.024 1548.69 Q796.292 1549.52 793.237 1549.52 Q785.39 1549.52 780.876 1544.73 Q776.362 1539.91 776.362 1531.6 Q776.362 1523.27 780.876 1518.48 Q785.39 1513.66 793.237 1513.66 Q796.339 1513.66 799.07 1514.5 Q801.825 1515.31 804.232 1516.95 Z" fill="#000000" fill-rule="evenodd" fill-opacity="1" /><path clip-path="url(#clip360)" d="M832.172 1515.42 L832.172 1519.98 Q829.51 1518.71 827.149 1518.08 Q824.787 1517.46 822.588 1517.46 Q818.769 1517.46 816.686 1518.94 Q814.625 1520.42 814.625 1523.15 Q814.625 1525.45 815.991 1526.63 Q817.38 1527.78 821.223 1528.5 L824.047 1529.08 Q829.278 1530.07 831.755 1532.6 Q834.255 1535.1 834.255 1539.31 Q834.255 1544.33 830.875 1546.93 Q827.519 1549.52 821.014 1549.52 Q818.561 1549.52 815.783 1548.96 Q813.028 1548.41 810.065 1547.32 L810.065 1542.51 Q812.913 1544.1 815.644 1544.91 Q818.375 1545.72 821.014 1545.72 Q825.019 1545.72 827.195 1544.15 Q829.371 1542.57 829.371 1539.66 Q829.371 1537.11 827.797 1535.68 Q826.246 1534.24 822.681 1533.52 L819.834 1532.97 Q814.602 1531.93 812.264 1529.7 Q809.926 1527.48 809.926 1523.52 Q809.926 1518.94 813.144 1516.3 Q816.385 1513.66 822.056 1513.66 Q824.487 1513.66 827.01 1514.1 Q829.533 1514.54 832.172 1515.42 Z" fill="#000000" fill-rule="evenodd" fill-opacity="1" /><path clip-path="url(#clip360)" d="M862.264 1515.42 L862.264 1519.98 Q859.602 1518.71 857.241 1518.08 Q854.88 1517.46 852.681 1517.46 Q848.861 1517.46 846.778 1518.94 Q844.718 1520.42 844.718 1523.15 Q844.718 1525.45 846.084 1526.63 Q847.473 1527.78 851.315 1528.5 L854.139 1529.08 Q859.371 1530.07 861.847 1532.6 Q864.347 1535.1 864.347 1539.31 Q864.347 1544.33 860.968 1546.93 Q857.611 1549.52 851.107 1549.52 Q848.653 1549.52 845.875 1548.96 Q843.121 1548.41 840.158 1547.32 L840.158 1542.51 Q843.005 1544.1 845.736 1544.91 Q848.468 1545.72 851.107 1545.72 Q855.111 1545.72 857.287 1544.15 Q859.463 1542.57 859.463 1539.66 Q859.463 1537.11 857.889 1535.68 Q856.338 1534.24 852.773 1533.52 L849.926 1532.97 Q844.695 1531.93 842.357 1529.7 Q840.019 1527.48 840.019 1523.52 Q840.019 1518.94 843.236 1516.3 Q846.477 1513.66 852.148 1513.66 Q854.579 1513.66 857.102 1514.1 Q859.625 1514.54 862.264 1515.42 Z" fill="#000000" fill-rule="evenodd" fill-opacity="1" /><path clip-path="url(#clip360)" d="M1053.63 1514.29 L1058.31 1514.29 L1058.31 1528.45 L1075.3 1528.45 L1075.3 1514.29 L1079.97 1514.29 L1079.97 1548.85 L1075.3 1548.85 L1075.3 1532.39 L1058.31 1532.39 L1058.31 1548.85 L1053.63 1548.85 L1053.63 1514.29 Z" fill="#000000" fill-rule="evenodd" fill-opacity="1" /><path clip-path="url(#clip360)" d="M1084.49 1514.29 L1113.72 1514.29 L1113.72 1518.22 L1101.46 1518.22 L1101.46 1548.85 L1096.76 1548.85 L1096.76 1518.22 L1084.49 1518.22 L1084.49 1514.29 Z" fill="#000000" fill-rule="evenodd" fill-opacity="1" /><path clip-path="url(#clip360)" d="M1118.24 1514.29 L1125.21 1514.29 L1134.02 1537.81 L1142.89 1514.29 L1149.86 1514.29 L1149.86 1548.85 L1145.3 1548.85 L1145.3 1518.5 L1136.39 1542.2 L1131.69 1542.2 L1122.77 1518.5 L1122.77 1548.85 L1118.24 1548.85 L1118.24 1514.29 Z" fill="#000000" fill-rule="evenodd" fill-opacity="1" /><path clip-path="url(#clip360)" d="M1159.14 1514.29 L1163.82 1514.29 L1163.82 1544.91 L1180.64 1544.91 L1180.64 1548.85 L1159.14 1548.85 L1159.14 1514.29 Z" fill="#000000" fill-rule="evenodd" fill-opacity="1" /><path clip-path="url(#clip360)" d="M1382.13 1515.42 L1382.13 1519.98 Q1379.47 1518.71 1377.11 1518.08 Q1374.74 1517.46 1372.55 1517.46 Q1368.73 1517.46 1366.64 1518.94 Q1364.58 1520.42 1364.58 1523.15 Q1364.58 1525.45 1365.95 1526.63 Q1367.34 1527.78 1371.18 1528.5 L1374 1529.08 Q1379.23 1530.07 1381.71 1532.6 Q1384.21 1535.1 1384.21 1539.31 Q1384.21 1544.33 1380.83 1546.93 Q1377.48 1549.52 1370.97 1549.52 Q1368.52 1549.52 1365.74 1548.96 Q1362.98 1548.41 1360.02 1547.32 L1360.02 1542.51 Q1362.87 1544.1 1365.6 1544.91 Q1368.33 1545.72 1370.97 1545.72 Q1374.98 1545.72 1377.15 1544.15 Q1379.33 1542.57 1379.33 1539.66 Q1379.33 1537.11 1377.75 1535.68 Q1376.2 1534.24 1372.64 1533.52 L1369.79 1532.97 Q1364.56 1531.93 1362.22 1529.7 Q1359.88 1527.48 1359.88 1523.52 Q1359.88 1518.94 1363.1 1516.3 Q1366.34 1513.66 1372.01 1513.66 Q1374.44 1513.66 1376.97 1514.1 Q1379.49 1514.54 1382.13 1515.42 Z" fill="#000000" fill-rule="evenodd" fill-opacity="1" /><path clip-path="url(#clip360)" d="M1412.87 1533.2 L1412.87 1548.85 L1408.61 1548.85 L1408.61 1533.34 Q1408.61 1529.66 1407.17 1527.83 Q1405.74 1526 1402.87 1526 Q1399.42 1526 1397.43 1528.2 Q1395.44 1530.4 1395.44 1534.2 L1395.44 1548.85 L1391.16 1548.85 L1391.16 1512.83 L1395.44 1512.83 L1395.44 1526.95 Q1396.97 1524.61 1399.03 1523.45 Q1401.11 1522.3 1403.82 1522.3 Q1408.29 1522.3 1410.58 1525.07 Q1412.87 1527.83 1412.87 1533.2 Z" fill="#000000" fill-rule="evenodd" fill-opacity="1" /><path clip-path="url(#clip360)" d="M1443.54 1534.82 L1443.54 1536.9 L1423.96 1536.9 Q1424.23 1541.3 1426.6 1543.62 Q1428.98 1545.91 1433.22 1545.91 Q1435.67 1545.91 1437.96 1545.31 Q1440.28 1544.7 1442.54 1543.5 L1442.54 1547.53 Q1440.25 1548.5 1437.85 1549.01 Q1435.44 1549.52 1432.96 1549.52 Q1426.76 1549.52 1423.12 1545.91 Q1419.51 1542.3 1419.51 1536.14 Q1419.51 1529.77 1422.94 1526.05 Q1426.39 1522.3 1432.22 1522.3 Q1437.45 1522.3 1440.48 1525.68 Q1443.54 1529.03 1443.54 1534.82 M1439.28 1533.57 Q1439.23 1530.07 1437.31 1527.99 Q1435.42 1525.91 1432.27 1525.91 Q1428.7 1525.91 1426.55 1527.92 Q1424.42 1529.94 1424.1 1533.59 L1439.28 1533.57 Z" fill="#000000" fill-rule="evenodd" fill-opacity="1" /><path clip-path="url(#clip360)" d="M1450.53 1512.83 L1454.79 1512.83 L1454.79 1548.85 L1450.53 1548.85 L1450.53 1512.83 Z" fill="#000000" fill-rule="evenodd" fill-opacity="1" /><path clip-path="url(#clip360)" d="M1463.7 1512.83 L1467.96 1512.83 L1467.96 1548.85 L1463.7 1548.85 L1463.7 1512.83 Z" fill="#000000" fill-rule="evenodd" fill-opacity="1" /><path clip-path="url(#clip360)" d="M1637.56 1518.13 L1637.56 1531.12 L1643.44 1531.12 Q1646.7 1531.12 1648.48 1529.43 Q1650.27 1527.74 1650.27 1524.61 Q1650.27 1521.51 1648.48 1519.82 Q1646.7 1518.13 1643.44 1518.13 L1637.56 1518.13 M1632.88 1514.29 L1643.44 1514.29 Q1649.25 1514.29 1652.21 1516.93 Q1655.2 1519.54 1655.2 1524.61 Q1655.2 1529.73 1652.21 1532.34 Q1649.25 1534.96 1643.44 1534.96 L1637.56 1534.96 L1637.56 1548.85 L1632.88 1548.85 L1632.88 1514.29 Z" fill="#000000" fill-rule="evenodd" fill-opacity="1" /><path clip-path="url(#clip360)" d="M1672.07 1551.26 Q1670.27 1555.88 1668.55 1557.3 Q1666.84 1558.71 1663.97 1558.71 L1660.57 1558.71 L1660.57 1555.14 L1663.07 1555.14 Q1664.83 1555.14 1665.8 1554.31 Q1666.77 1553.48 1667.95 1550.38 L1668.72 1548.43 L1658.23 1522.92 L1662.74 1522.92 L1670.84 1543.2 L1678.95 1522.92 L1683.46 1522.92 L1672.07 1551.26 Z" fill="#000000" fill-rule="evenodd" fill-opacity="1" /><path clip-path="url(#clip360)" d="M1693.55 1515.56 L1693.55 1522.92 L1702.33 1522.92 L1702.33 1526.23 L1693.55 1526.23 L1693.55 1540.31 Q1693.55 1543.48 1694.41 1544.38 Q1695.29 1545.28 1697.95 1545.28 L1702.33 1545.28 L1702.33 1548.85 L1697.95 1548.85 Q1693.02 1548.85 1691.15 1547.02 Q1689.27 1545.17 1689.27 1540.31 L1689.27 1526.23 L1686.15 1526.23 L1686.15 1522.92 L1689.27 1522.92 L1689.27 1515.56 L1693.55 1515.56 Z" fill="#000000" fill-rule="evenodd" fill-opacity="1" /><path clip-path="url(#clip360)" d="M1729.48 1533.2 L1729.48 1548.85 L1725.22 1548.85 L1725.22 1533.34 Q1725.22 1529.66 1723.78 1527.83 Q1722.35 1526 1719.48 1526 Q1716.03 1526 1714.04 1528.2 Q1712.05 1530.4 1712.05 1534.2 L1712.05 1548.85 L1707.77 1548.85 L1707.77 1512.83 L1712.05 1512.83 L1712.05 1526.95 Q1713.58 1524.61 1715.64 1523.45 Q1717.72 1522.3 1720.43 1522.3 Q1724.9 1522.3 1727.19 1525.07 Q1729.48 1527.83 1729.48 1533.2 Z" fill="#000000" fill-rule="evenodd" fill-opacity="1" /><path clip-path="url(#clip360)" d="M1748.02 1525.91 Q1744.59 1525.91 1742.6 1528.59 Q1740.61 1531.26 1740.61 1535.91 Q1740.61 1540.56 1742.58 1543.25 Q1744.57 1545.91 1748.02 1545.91 Q1751.42 1545.91 1753.41 1543.22 Q1755.4 1540.54 1755.4 1535.91 Q1755.4 1531.3 1753.41 1528.62 Q1751.42 1525.91 1748.02 1525.91 M1748.02 1522.3 Q1753.58 1522.3 1756.75 1525.91 Q1759.92 1529.52 1759.92 1535.91 Q1759.92 1542.27 1756.75 1545.91 Q1753.58 1549.52 1748.02 1549.52 Q1742.44 1549.52 1739.27 1545.91 Q1736.12 1542.27 1736.12 1535.91 Q1736.12 1529.52 1739.27 1525.91 Q1742.44 1522.3 1748.02 1522.3 Z" fill="#000000" fill-rule="evenodd" fill-opacity="1" /><path clip-path="url(#clip360)" d="M1788.53 1533.2 L1788.53 1548.85 L1784.27 1548.85 L1784.27 1533.34 Q1784.27 1529.66 1782.84 1527.83 Q1781.4 1526 1778.53 1526 Q1775.08 1526 1773.09 1528.2 Q1771.1 1530.4 1771.1 1534.2 L1771.1 1548.85 L1766.82 1548.85 L1766.82 1522.92 L1771.1 1522.92 L1771.1 1526.95 Q1772.63 1524.61 1774.69 1523.45 Q1776.77 1522.3 1779.48 1522.3 Q1783.95 1522.3 1786.24 1525.07 Q1788.53 1527.83 1788.53 1533.2 Z" fill="#000000" fill-rule="evenodd" fill-opacity="1" /><path clip-path="url(#clip360)" d="M2171.87 1532.64 Q2173.37 1533.15 2174.78 1534.82 Q2176.22 1536.49 2177.66 1539.4 L2182.4 1548.85 L2177.38 1548.85 L2172.96 1539.98 Q2171.24 1536.51 2169.62 1535.38 Q2168.03 1534.24 2165.25 1534.24 L2160.16 1534.24 L2160.16 1548.85 L2155.48 1548.85 L2155.48 1514.29 L2166.03 1514.29 Q2171.96 1514.29 2174.88 1516.76 Q2177.79 1519.24 2177.79 1524.24 Q2177.79 1527.51 2176.27 1529.66 Q2174.76 1531.81 2171.87 1532.64 M2160.16 1518.13 L2160.16 1530.4 L2166.03 1530.4 Q2169.41 1530.4 2171.13 1528.85 Q2172.86 1527.27 2172.86 1524.24 Q2172.86 1521.21 2171.13 1519.68 Q2169.41 1518.13 2166.03 1518.13 L2160.16 1518.13 Z" fill="#000000" fill-rule="evenodd" fill-opacity="1" /><polyline clip-path="url(#clip362)" style="stroke:#222255; stroke-linecap:butt; stroke-linejoin:round; stroke-width:2; stroke-opacity:0.1; fill:none" points="
  304.141,1486.45 2352.76,1486.45 
  "/>
<polyline clip-path="url(#clip362)" style="stroke:#222255; stroke-linecap:butt; stroke-linejoin:round; stroke-width:2; stroke-opacity:0.1; fill:none" points="
  304.141,1175.09 2352.76,1175.09 
  "/>
<polyline clip-path="url(#clip362)" style="stroke:#222255; stroke-linecap:butt; stroke-linejoin:round; stroke-width:2; stroke-opacity:0.1; fill:none" points="
  304.141,863.727 2352.76,863.727 
  "/>
<polyline clip-path="url(#clip362)" style="stroke:#222255; stroke-linecap:butt; stroke-linejoin:round; stroke-width:2; stroke-opacity:0.1; fill:none" points="
  304.141,552.366 2352.76,552.366 
  "/>
<polyline clip-path="url(#clip362)" style="stroke:#222255; stroke-linecap:butt; stroke-linejoin:round; stroke-width:2; stroke-opacity:0.1; fill:none" points="
  304.141,241.005 2352.76,241.005 
  "/>
<polyline clip-path="url(#clip362)" style="stroke:#222255; stroke-linecap:butt; stroke-linejoin:round; stroke-width:2; stroke-opacity:0.05; fill:none" points="
  304.141,1424.18 2352.76,1424.18 
  "/>
<polyline clip-path="url(#clip362)" style="stroke:#222255; stroke-linecap:butt; stroke-linejoin:round; stroke-width:2; stroke-opacity:0.05; fill:none" points="
  304.141,1361.9 2352.76,1361.9 
  "/>
<polyline clip-path="url(#clip362)" style="stroke:#222255; stroke-linecap:butt; stroke-linejoin:round; stroke-width:2; stroke-opacity:0.05; fill:none" points="
  304.141,1299.63 2352.76,1299.63 
  "/>
<polyline clip-path="url(#clip362)" style="stroke:#222255; stroke-linecap:butt; stroke-linejoin:round; stroke-width:2; stroke-opacity:0.05; fill:none" points="
  304.141,1237.36 2352.76,1237.36 
  "/>
<polyline clip-path="url(#clip362)" style="stroke:#222255; stroke-linecap:butt; stroke-linejoin:round; stroke-width:2; stroke-opacity:0.05; fill:none" points="
  304.141,1112.82 2352.76,1112.82 
  "/>
<polyline clip-path="url(#clip362)" style="stroke:#222255; stroke-linecap:butt; stroke-linejoin:round; stroke-width:2; stroke-opacity:0.05; fill:none" points="
  304.141,1050.54 2352.76,1050.54 
  "/>
<polyline clip-path="url(#clip362)" style="stroke:#222255; stroke-linecap:butt; stroke-linejoin:round; stroke-width:2; stroke-opacity:0.05; fill:none" points="
  304.141,988.271 2352.76,988.271 
  "/>
<polyline clip-path="url(#clip362)" style="stroke:#222255; stroke-linecap:butt; stroke-linejoin:round; stroke-width:2; stroke-opacity:0.05; fill:none" points="
  304.141,925.999 2352.76,925.999 
  "/>
<polyline clip-path="url(#clip362)" style="stroke:#222255; stroke-linecap:butt; stroke-linejoin:round; stroke-width:2; stroke-opacity:0.05; fill:none" points="
  304.141,801.454 2352.76,801.454 
  "/>
<polyline clip-path="url(#clip362)" style="stroke:#222255; stroke-linecap:butt; stroke-linejoin:round; stroke-width:2; stroke-opacity:0.05; fill:none" points="
  304.141,739.182 2352.76,739.182 
  "/>
<polyline clip-path="url(#clip362)" style="stroke:#222255; stroke-linecap:butt; stroke-linejoin:round; stroke-width:2; stroke-opacity:0.05; fill:none" points="
  304.141,676.91 2352.76,676.91 
  "/>
<polyline clip-path="url(#clip362)" style="stroke:#222255; stroke-linecap:butt; stroke-linejoin:round; stroke-width:2; stroke-opacity:0.05; fill:none" points="
  304.141,614.638 2352.76,614.638 
  "/>
<polyline clip-path="url(#clip362)" style="stroke:#222255; stroke-linecap:butt; stroke-linejoin:round; stroke-width:2; stroke-opacity:0.05; fill:none" points="
  304.141,490.094 2352.76,490.094 
  "/>
<polyline clip-path="url(#clip362)" style="stroke:#222255; stroke-linecap:butt; stroke-linejoin:round; stroke-width:2; stroke-opacity:0.05; fill:none" points="
  304.141,427.822 2352.76,427.822 
  "/>
<polyline clip-path="url(#clip362)" style="stroke:#222255; stroke-linecap:butt; stroke-linejoin:round; stroke-width:2; stroke-opacity:0.05; fill:none" points="
  304.141,365.549 2352.76,365.549 
  "/>
<polyline clip-path="url(#clip362)" style="stroke:#222255; stroke-linecap:butt; stroke-linejoin:round; stroke-width:2; stroke-opacity:0.05; fill:none" points="
  304.141,303.277 2352.76,303.277 
  "/>
<polyline clip-path="url(#clip362)" style="stroke:#222255; stroke-linecap:butt; stroke-linejoin:round; stroke-width:2; stroke-opacity:0.05; fill:none" points="
  304.141,178.733 2352.76,178.733 
  "/>
<polyline clip-path="url(#clip362)" style="stroke:#222255; stroke-linecap:butt; stroke-linejoin:round; stroke-width:2; stroke-opacity:0.05; fill:none" points="
  304.141,116.461 2352.76,116.461 
  "/>
<polyline clip-path="url(#clip362)" style="stroke:#222255; stroke-linecap:butt; stroke-linejoin:round; stroke-width:2; stroke-opacity:0.05; fill:none" points="
  304.141,54.1888 2352.76,54.1888 
  "/>
<polyline clip-path="url(#clip360)" style="stroke:#222255; stroke-linecap:butt; stroke-linejoin:round; stroke-width:4; stroke-opacity:0; fill:none" points="
  304.141,1486.45 323.038,1486.45 
  "/>
<polyline clip-path="url(#clip360)" style="stroke:#222255; stroke-linecap:butt; stroke-linejoin:round; stroke-width:4; stroke-opacity:0; fill:none" points="
  304.141,1175.09 323.038,1175.09 
  "/>
<polyline clip-path="url(#clip360)" style="stroke:#222255; stroke-linecap:butt; stroke-linejoin:round; stroke-width:4; stroke-opacity:0; fill:none" points="
  304.141,863.727 323.038,863.727 
  "/>
<polyline clip-path="url(#clip360)" style="stroke:#222255; stroke-linecap:butt; stroke-linejoin:round; stroke-width:4; stroke-opacity:0; fill:none" points="
  304.141,552.366 323.038,552.366 
  "/>
<polyline clip-path="url(#clip360)" style="stroke:#222255; stroke-linecap:butt; stroke-linejoin:round; stroke-width:4; stroke-opacity:0; fill:none" points="
  304.141,241.005 323.038,241.005 
  "/>
<polyline clip-path="url(#clip360)" style="stroke:#222255; stroke-linecap:butt; stroke-linejoin:round; stroke-width:4; stroke-opacity:0; fill:none" points="
  304.141,1424.18 313.59,1424.18 
  "/>
<polyline clip-path="url(#clip360)" style="stroke:#222255; stroke-linecap:butt; stroke-linejoin:round; stroke-width:4; stroke-opacity:0; fill:none" points="
  304.141,1361.9 313.59,1361.9 
  "/>
<polyline clip-path="url(#clip360)" style="stroke:#222255; stroke-linecap:butt; stroke-linejoin:round; stroke-width:4; stroke-opacity:0; fill:none" points="
  304.141,1299.63 313.59,1299.63 
  "/>
<polyline clip-path="url(#clip360)" style="stroke:#222255; stroke-linecap:butt; stroke-linejoin:round; stroke-width:4; stroke-opacity:0; fill:none" points="
  304.141,1237.36 313.59,1237.36 
  "/>
<polyline clip-path="url(#clip360)" style="stroke:#222255; stroke-linecap:butt; stroke-linejoin:round; stroke-width:4; stroke-opacity:0; fill:none" points="
  304.141,1112.82 313.59,1112.82 
  "/>
<polyline clip-path="url(#clip360)" style="stroke:#222255; stroke-linecap:butt; stroke-linejoin:round; stroke-width:4; stroke-opacity:0; fill:none" points="
  304.141,1050.54 313.59,1050.54 
  "/>
<polyline clip-path="url(#clip360)" style="stroke:#222255; stroke-linecap:butt; stroke-linejoin:round; stroke-width:4; stroke-opacity:0; fill:none" points="
  304.141,988.271 313.59,988.271 
  "/>
<polyline clip-path="url(#clip360)" style="stroke:#222255; stroke-linecap:butt; stroke-linejoin:round; stroke-width:4; stroke-opacity:0; fill:none" points="
  304.141,925.999 313.59,925.999 
  "/>
<polyline clip-path="url(#clip360)" style="stroke:#222255; stroke-linecap:butt; stroke-linejoin:round; stroke-width:4; stroke-opacity:0; fill:none" points="
  304.141,801.454 313.59,801.454 
  "/>
<polyline clip-path="url(#clip360)" style="stroke:#222255; stroke-linecap:butt; stroke-linejoin:round; stroke-width:4; stroke-opacity:0; fill:none" points="
  304.141,739.182 313.59,739.182 
  "/>
<polyline clip-path="url(#clip360)" style="stroke:#222255; stroke-linecap:butt; stroke-linejoin:round; stroke-width:4; stroke-opacity:0; fill:none" points="
  304.141,676.91 313.59,676.91 
  "/>
<polyline clip-path="url(#clip360)" style="stroke:#222255; stroke-linecap:butt; stroke-linejoin:round; stroke-width:4; stroke-opacity:0; fill:none" points="
  304.141,614.638 313.59,614.638 
  "/>
<polyline clip-path="url(#clip360)" style="stroke:#222255; stroke-linecap:butt; stroke-linejoin:round; stroke-width:4; stroke-opacity:0; fill:none" points="
  304.141,490.094 313.59,490.094 
  "/>
<polyline clip-path="url(#clip360)" style="stroke:#222255; stroke-linecap:butt; stroke-linejoin:round; stroke-width:4; stroke-opacity:0; fill:none" points="
  304.141,427.822 313.59,427.822 
  "/>
<polyline clip-path="url(#clip360)" style="stroke:#222255; stroke-linecap:butt; stroke-linejoin:round; stroke-width:4; stroke-opacity:0; fill:none" points="
  304.141,365.549 313.59,365.549 
  "/>
<polyline clip-path="url(#clip360)" style="stroke:#222255; stroke-linecap:butt; stroke-linejoin:round; stroke-width:4; stroke-opacity:0; fill:none" points="
  304.141,303.277 313.59,303.277 
  "/>
<polyline clip-path="url(#clip360)" style="stroke:#222255; stroke-linecap:butt; stroke-linejoin:round; stroke-width:4; stroke-opacity:0; fill:none" points="
  304.141,178.733 313.59,178.733 
  "/>
<polyline clip-path="url(#clip360)" style="stroke:#222255; stroke-linecap:butt; stroke-linejoin:round; stroke-width:4; stroke-opacity:0; fill:none" points="
  304.141,116.461 313.59,116.461 
  "/>
<polyline clip-path="url(#clip360)" style="stroke:#222255; stroke-linecap:butt; stroke-linejoin:round; stroke-width:4; stroke-opacity:0; fill:none" points="
  304.141,54.1888 313.59,54.1888 
  "/>
<path clip-path="url(#clip360)" d="M256.196 1472.25 Q252.585 1472.25 250.757 1475.81 Q248.951 1479.35 248.951 1486.48 Q248.951 1493.59 250.757 1497.15 Q252.585 1500.7 256.196 1500.7 Q259.831 1500.7 261.636 1497.15 Q263.465 1493.59 263.465 1486.48 Q263.465 1479.35 261.636 1475.81 Q259.831 1472.25 256.196 1472.25 M256.196 1468.54 Q262.007 1468.54 265.062 1473.15 Q268.141 1477.73 268.141 1486.48 Q268.141 1495.21 265.062 1499.82 Q262.007 1504.4 256.196 1504.4 Q250.386 1504.4 247.308 1499.82 Q244.252 1495.21 244.252 1486.48 Q244.252 1477.73 247.308 1473.15 Q250.386 1468.54 256.196 1468.54 Z" fill="#000000" fill-rule="evenodd" fill-opacity="1" /><path clip-path="url(#clip360)" d="M56.6171 1194.88 L72.9365 1194.88 L72.9365 1198.81 L50.9921 1198.81 L50.9921 1194.88 Q53.6541 1192.13 58.2375 1187.5 Q62.8439 1182.84 64.0245 1181.5 Q66.2698 1178.98 67.1494 1177.24 Q68.0522 1175.48 68.0522 1173.79 Q68.0522 1171.04 66.1078 1169.3 Q64.1865 1167.56 61.0847 1167.56 Q58.8856 1167.56 56.4319 1168.33 Q54.0014 1169.09 51.2236 1170.64 L51.2236 1165.92 Q54.0477 1164.79 56.5014 1164.21 Q58.955 1163.63 60.9921 1163.63 Q66.3624 1163.63 69.5568 1166.31 Q72.7513 1169 72.7513 1173.49 Q72.7513 1175.62 71.9411 1177.54 Q71.1541 1179.44 69.0476 1182.03 Q68.4689 1182.7 65.367 1185.92 Q62.2652 1189.12 56.6171 1194.88 Z" fill="#000000" fill-rule="evenodd" fill-opacity="1" /><path clip-path="url(#clip360)" d="M82.7512 1192.94 L87.6354 1192.94 L87.6354 1198.81 L82.7512 1198.81 L82.7512 1192.94 Z" fill="#000000" fill-rule="evenodd" fill-opacity="1" /><path clip-path="url(#clip360)" d="M97.8669 1164.25 L116.223 1164.25 L116.223 1168.19 L102.149 1168.19 L102.149 1176.66 Q103.168 1176.31 104.186 1176.15 Q105.205 1175.97 106.223 1175.97 Q112.01 1175.97 115.39 1179.14 Q118.77 1182.31 118.77 1187.73 Q118.77 1193.31 115.297 1196.41 Q111.825 1199.49 105.506 1199.49 Q103.33 1199.49 101.061 1199.12 Q98.8159 1198.75 96.4085 1198 L96.4085 1193.31 Q98.4919 1194.44 100.714 1195 Q102.936 1195.55 105.413 1195.55 Q109.418 1195.55 111.756 1193.44 Q114.094 1191.34 114.094 1187.73 Q114.094 1184.12 111.756 1182.01 Q109.418 1179.9 105.413 1179.9 Q103.538 1179.9 101.663 1180.32 Q99.8113 1180.74 97.8669 1181.62 L97.8669 1164.25 Z" fill="#000000" fill-rule="evenodd" fill-opacity="1" /><path clip-path="url(#clip360)" d="M137.982 1167.33 Q134.371 1167.33 132.543 1170.9 Q130.737 1174.44 130.737 1181.57 Q130.737 1188.68 132.543 1192.24 Q134.371 1195.78 137.982 1195.78 Q141.617 1195.78 143.422 1192.24 Q145.251 1188.68 145.251 1181.57 Q145.251 1174.44 143.422 1170.9 Q141.617 1167.33 137.982 1167.33 M137.982 1163.63 Q143.793 1163.63 146.848 1168.24 Q149.927 1172.82 149.927 1181.57 Q149.927 1190.3 146.848 1194.9 Q143.793 1199.49 137.982 1199.49 Q132.172 1199.49 129.094 1194.9 Q126.038 1190.3 126.038 1181.57 Q126.038 1172.82 129.094 1168.24 Q132.172 1163.63 137.982 1163.63 Z" fill="#000000" fill-rule="evenodd" fill-opacity="1" /><path clip-path="url(#clip360)" d="M186.315 1173.35 L175.737 1183.98 L186.315 1194.56 L183.561 1197.36 L172.936 1186.73 L162.311 1197.36 L159.58 1194.56 L170.135 1183.98 L159.58 1173.35 L162.311 1170.55 L172.936 1181.18 L183.561 1170.55 L186.315 1173.35 Z" fill="#000000" fill-rule="evenodd" fill-opacity="1" /><path clip-path="url(#clip360)" d="M198.677 1194.88 L206.315 1194.88 L206.315 1168.51 L198.005 1170.18 L198.005 1165.92 L206.269 1164.25 L210.945 1164.25 L210.945 1194.88 L218.584 1194.88 L218.584 1198.81 L198.677 1198.81 L198.677 1194.88 Z" fill="#000000" fill-rule="evenodd" fill-opacity="1" /><path clip-path="url(#clip360)" d="M238.028 1167.33 Q234.417 1167.33 232.588 1170.9 Q230.783 1174.44 230.783 1181.57 Q230.783 1188.68 232.588 1192.24 Q234.417 1195.78 238.028 1195.78 Q241.662 1195.78 243.468 1192.24 Q245.297 1188.68 245.297 1181.57 Q245.297 1174.44 243.468 1170.9 Q241.662 1167.33 238.028 1167.33 M238.028 1163.63 Q243.838 1163.63 246.894 1168.24 Q249.973 1172.82 249.973 1181.57 Q249.973 1190.3 246.894 1194.9 Q243.838 1199.49 238.028 1199.49 Q232.218 1199.49 229.139 1194.9 Q226.084 1190.3 226.084 1181.57 Q226.084 1172.82 229.139 1168.24 Q232.218 1163.63 238.028 1163.63 Z" fill="#000000" fill-rule="evenodd" fill-opacity="1" /><path clip-path="url(#clip360)" d="M251.157 1143.32 L266.072 1143.32 L266.072 1146.52 L254.637 1146.52 L254.637 1153.41 Q255.464 1153.12 256.292 1152.99 Q257.119 1152.84 257.947 1152.84 Q262.649 1152.84 265.395 1155.42 Q268.141 1157.99 268.141 1162.4 Q268.141 1166.93 265.32 1169.45 Q262.499 1171.95 257.364 1171.95 Q255.596 1171.95 253.753 1171.65 Q251.929 1171.35 249.973 1170.75 L249.973 1166.93 Q251.665 1167.85 253.471 1168.3 Q255.276 1168.75 257.289 1168.75 Q260.543 1168.75 262.442 1167.04 Q264.342 1165.33 264.342 1162.4 Q264.342 1159.46 262.442 1157.75 Q260.543 1156.04 257.289 1156.04 Q255.765 1156.04 254.242 1156.38 Q252.737 1156.72 251.157 1157.43 L251.157 1143.32 Z" fill="#000000" fill-rule="evenodd" fill-opacity="1" /><path clip-path="url(#clip360)" d="M52.6356 852.894 L70.992 852.894 L70.992 856.829 L56.918 856.829 L56.918 865.301 Q57.9365 864.954 58.955 864.792 Q59.9736 864.607 60.9921 864.607 Q66.7791 864.607 70.1587 867.778 Q73.5383 870.95 73.5383 876.366 Q73.5383 881.945 70.0661 885.047 Q66.5939 888.125 60.2745 888.125 Q58.0986 888.125 55.8301 887.755 Q53.5847 887.385 51.1773 886.644 L51.1773 881.945 Q53.2606 883.079 55.4828 883.635 Q57.7051 884.19 60.1819 884.19 Q64.1865 884.19 66.5245 882.084 Q68.8624 879.977 68.8624 876.366 Q68.8624 872.755 66.5245 870.649 Q64.1865 868.542 60.1819 868.542 Q58.3069 868.542 56.4319 868.959 Q54.5801 869.376 52.6356 870.255 L52.6356 852.894 Z" fill="#000000" fill-rule="evenodd" fill-opacity="1" /><path clip-path="url(#clip360)" d="M82.7512 881.575 L87.6354 881.575 L87.6354 887.454 L82.7512 887.454 L82.7512 881.575 Z" fill="#000000" fill-rule="evenodd" fill-opacity="1" /><path clip-path="url(#clip360)" d="M107.821 855.973 Q104.209 855.973 102.381 859.538 Q100.575 863.079 100.575 870.209 Q100.575 877.315 102.381 880.88 Q104.209 884.422 107.821 884.422 Q111.455 884.422 113.26 880.88 Q115.089 877.315 115.089 870.209 Q115.089 863.079 113.26 859.538 Q111.455 855.973 107.821 855.973 M107.821 852.269 Q113.631 852.269 116.686 856.876 Q119.765 861.459 119.765 870.209 Q119.765 878.936 116.686 883.542 Q113.631 888.125 107.821 888.125 Q102.01 888.125 98.9317 883.542 Q95.8761 878.936 95.8761 870.209 Q95.8761 861.459 98.9317 856.876 Q102.01 852.269 107.821 852.269 Z" fill="#000000" fill-rule="evenodd" fill-opacity="1" /><path clip-path="url(#clip360)" d="M137.982 855.973 Q134.371 855.973 132.543 859.538 Q130.737 863.079 130.737 870.209 Q130.737 877.315 132.543 880.88 Q134.371 884.422 137.982 884.422 Q141.617 884.422 143.422 880.88 Q145.251 877.315 145.251 870.209 Q145.251 863.079 143.422 859.538 Q141.617 855.973 137.982 855.973 M137.982 852.269 Q143.793 852.269 146.848 856.876 Q149.927 861.459 149.927 870.209 Q149.927 878.936 146.848 883.542 Q143.793 888.125 137.982 888.125 Q132.172 888.125 129.094 883.542 Q126.038 878.936 126.038 870.209 Q126.038 861.459 129.094 856.876 Q132.172 852.269 137.982 852.269 Z" fill="#000000" fill-rule="evenodd" fill-opacity="1" /><path clip-path="url(#clip360)" d="M186.315 861.991 L175.737 872.616 L186.315 883.195 L183.561 885.996 L172.936 875.371 L162.311 885.996 L159.58 883.195 L170.135 872.616 L159.58 861.991 L162.311 859.19 L172.936 869.815 L183.561 859.19 L186.315 861.991 Z" fill="#000000" fill-rule="evenodd" fill-opacity="1" /><path clip-path="url(#clip360)" d="M198.677 883.519 L206.315 883.519 L206.315 857.153 L198.005 858.82 L198.005 854.561 L206.269 852.894 L210.945 852.894 L210.945 883.519 L218.584 883.519 L218.584 887.454 L198.677 887.454 L198.677 883.519 Z" fill="#000000" fill-rule="evenodd" fill-opacity="1" /><path clip-path="url(#clip360)" d="M238.028 855.973 Q234.417 855.973 232.588 859.538 Q230.783 863.079 230.783 870.209 Q230.783 877.315 232.588 880.88 Q234.417 884.422 238.028 884.422 Q241.662 884.422 243.468 880.88 Q245.297 877.315 245.297 870.209 Q245.297 863.079 243.468 859.538 Q241.662 855.973 238.028 855.973 M238.028 852.269 Q243.838 852.269 246.894 856.876 Q249.973 861.459 249.973 870.209 Q249.973 878.936 246.894 883.542 Q243.838 888.125 238.028 888.125 Q232.218 888.125 229.139 883.542 Q226.084 878.936 226.084 870.209 Q226.084 861.459 229.139 856.876 Q232.218 852.269 238.028 852.269 Z" fill="#000000" fill-rule="evenodd" fill-opacity="1" /><path clip-path="url(#clip360)" d="M251.157 831.964 L266.072 831.964 L266.072 835.161 L254.637 835.161 L254.637 842.045 Q255.464 841.763 256.292 841.631 Q257.119 841.48 257.947 841.48 Q262.649 841.48 265.395 844.057 Q268.141 846.634 268.141 851.035 Q268.141 855.567 265.32 858.088 Q262.499 860.589 257.364 860.589 Q255.596 860.589 253.753 860.288 Q251.929 859.987 249.973 859.385 L249.973 855.567 Q251.665 856.489 253.471 856.94 Q255.276 857.392 257.289 857.392 Q260.543 857.392 262.442 855.68 Q264.342 853.969 264.342 851.035 Q264.342 848.101 262.442 846.389 Q260.543 844.678 257.289 844.678 Q255.765 844.678 254.242 845.016 Q252.737 845.355 251.157 846.07 L251.157 831.964 Z" fill="#000000" fill-rule="evenodd" fill-opacity="1" /><path clip-path="url(#clip360)" d="M51.4088 541.533 L73.6309 541.533 L73.6309 543.524 L61.0847 576.093 L56.2004 576.093 L68.0059 545.469 L51.4088 545.469 L51.4088 541.533 Z" fill="#000000" fill-rule="evenodd" fill-opacity="1" /><path clip-path="url(#clip360)" d="M82.7512 570.214 L87.6354 570.214 L87.6354 576.093 L82.7512 576.093 L82.7512 570.214 Z" fill="#000000" fill-rule="evenodd" fill-opacity="1" /><path clip-path="url(#clip360)" d="M97.8669 541.533 L116.223 541.533 L116.223 545.469 L102.149 545.469 L102.149 553.941 Q103.168 553.594 104.186 553.432 Q105.205 553.246 106.223 553.246 Q112.01 553.246 115.39 556.418 Q118.77 559.589 118.77 565.006 Q118.77 570.584 115.297 573.686 Q111.825 576.765 105.506 576.765 Q103.33 576.765 101.061 576.394 Q98.8159 576.024 96.4085 575.283 L96.4085 570.584 Q98.4919 571.718 100.714 572.274 Q102.936 572.83 105.413 572.83 Q109.418 572.83 111.756 570.723 Q114.094 568.617 114.094 565.006 Q114.094 561.394 111.756 559.288 Q109.418 557.182 105.413 557.182 Q103.538 557.182 101.663 557.598 Q99.8113 558.015 97.8669 558.894 L97.8669 541.533 Z" fill="#000000" fill-rule="evenodd" fill-opacity="1" /><path clip-path="url(#clip360)" d="M137.982 544.612 Q134.371 544.612 132.543 548.177 Q130.737 551.719 130.737 558.848 Q130.737 565.955 132.543 569.519 Q134.371 573.061 137.982 573.061 Q141.617 573.061 143.422 569.519 Q145.251 565.955 145.251 558.848 Q145.251 551.719 143.422 548.177 Q141.617 544.612 137.982 544.612 M137.982 540.908 Q143.793 540.908 146.848 545.515 Q149.927 550.098 149.927 558.848 Q149.927 567.575 146.848 572.181 Q143.793 576.765 137.982 576.765 Q132.172 576.765 129.094 572.181 Q126.038 567.575 126.038 558.848 Q126.038 550.098 129.094 545.515 Q132.172 540.908 137.982 540.908 Z" fill="#000000" fill-rule="evenodd" fill-opacity="1" /><path clip-path="url(#clip360)" d="M186.315 550.631 L175.737 561.256 L186.315 571.834 L183.561 574.635 L172.936 564.01 L162.311 574.635 L159.58 571.834 L170.135 561.256 L159.58 550.631 L162.311 547.83 L172.936 558.455 L183.561 547.83 L186.315 550.631 Z" fill="#000000" fill-rule="evenodd" fill-opacity="1" /><path clip-path="url(#clip360)" d="M198.677 572.158 L206.315 572.158 L206.315 545.793 L198.005 547.459 L198.005 543.2 L206.269 541.533 L210.945 541.533 L210.945 572.158 L218.584 572.158 L218.584 576.093 L198.677 576.093 L198.677 572.158 Z" fill="#000000" fill-rule="evenodd" fill-opacity="1" /><path clip-path="url(#clip360)" d="M238.028 544.612 Q234.417 544.612 232.588 548.177 Q230.783 551.719 230.783 558.848 Q230.783 565.955 232.588 569.519 Q234.417 573.061 238.028 573.061 Q241.662 573.061 243.468 569.519 Q245.297 565.955 245.297 558.848 Q245.297 551.719 243.468 548.177 Q241.662 544.612 238.028 544.612 M238.028 540.908 Q243.838 540.908 246.894 545.515 Q249.973 550.098 249.973 558.848 Q249.973 567.575 246.894 572.181 Q243.838 576.765 238.028 576.765 Q232.218 576.765 229.139 572.181 Q226.084 567.575 226.084 558.848 Q226.084 550.098 229.139 545.515 Q232.218 540.908 238.028 540.908 Z" fill="#000000" fill-rule="evenodd" fill-opacity="1" /><path clip-path="url(#clip360)" d="M251.157 520.603 L266.072 520.603 L266.072 523.8 L254.637 523.8 L254.637 530.684 Q255.464 530.402 256.292 530.27 Q257.119 530.12 257.947 530.12 Q262.649 530.12 265.395 532.696 Q268.141 535.273 268.141 539.674 Q268.141 544.207 265.32 546.727 Q262.499 549.228 257.364 549.228 Q255.596 549.228 253.753 548.928 Q251.929 548.627 249.973 548.025 L249.973 544.207 Q251.665 545.128 253.471 545.58 Q255.276 546.031 257.289 546.031 Q260.543 546.031 262.442 544.32 Q264.342 542.608 264.342 539.674 Q264.342 536.74 262.442 535.029 Q260.543 533.317 257.289 533.317 Q255.765 533.317 254.242 533.656 Q252.737 533.994 251.157 534.709 L251.157 520.603 Z" fill="#000000" fill-rule="evenodd" fill-opacity="1" /><path clip-path="url(#clip360)" d="M52.177 260.798 L59.8159 260.798 L59.8159 234.432 L51.5057 236.099 L51.5057 231.839 L59.7696 230.173 L64.4455 230.173 L64.4455 260.798 L72.0843 260.798 L72.0843 264.733 L52.177 264.733 L52.177 260.798 Z" fill="#000000" fill-rule="evenodd" fill-opacity="1" /><path clip-path="url(#clip360)" d="M81.5287 258.853 L86.4129 258.853 L86.4129 264.733 L81.5287 264.733 L81.5287 258.853 Z" fill="#000000" fill-rule="evenodd" fill-opacity="1" /><path clip-path="url(#clip360)" d="M106.598 233.251 Q102.987 233.251 101.158 236.816 Q99.3527 240.358 99.3527 247.488 Q99.3527 254.594 101.158 258.159 Q102.987 261.7 106.598 261.7 Q110.232 261.7 112.038 258.159 Q113.866 254.594 113.866 247.488 Q113.866 240.358 112.038 236.816 Q110.232 233.251 106.598 233.251 M106.598 229.548 Q112.408 229.548 115.464 234.154 Q118.542 238.738 118.542 247.488 Q118.542 256.214 115.464 260.821 Q112.408 265.404 106.598 265.404 Q100.788 265.404 97.7092 260.821 Q94.6536 256.214 94.6536 247.488 Q94.6536 238.738 97.7092 234.154 Q100.788 229.548 106.598 229.548 Z" fill="#000000" fill-rule="evenodd" fill-opacity="1" /><path clip-path="url(#clip360)" d="M136.76 233.251 Q133.149 233.251 131.32 236.816 Q129.515 240.358 129.515 247.488 Q129.515 254.594 131.32 258.159 Q133.149 261.7 136.76 261.7 Q140.394 261.7 142.2 258.159 Q144.028 254.594 144.028 247.488 Q144.028 240.358 142.2 236.816 Q140.394 233.251 136.76 233.251 M136.76 229.548 Q142.57 229.548 145.626 234.154 Q148.704 238.738 148.704 247.488 Q148.704 256.214 145.626 260.821 Q142.57 265.404 136.76 265.404 Q130.95 265.404 127.871 260.821 Q124.816 256.214 124.816 247.488 Q124.816 238.738 127.871 234.154 Q130.95 229.548 136.76 229.548 Z" fill="#000000" fill-rule="evenodd" fill-opacity="1" /><path clip-path="url(#clip360)" d="M185.093 239.27 L174.514 249.895 L185.093 260.474 L182.338 263.274 L171.713 252.65 L161.088 263.274 L158.357 260.474 L168.913 249.895 L158.357 239.27 L161.088 236.469 L171.713 247.094 L182.338 236.469 L185.093 239.27 Z" fill="#000000" fill-rule="evenodd" fill-opacity="1" /><path clip-path="url(#clip360)" d="M197.454 260.798 L205.093 260.798 L205.093 234.432 L196.783 236.099 L196.783 231.839 L205.047 230.173 L209.722 230.173 L209.722 260.798 L217.361 260.798 L217.361 264.733 L197.454 264.733 L197.454 260.798 Z" fill="#000000" fill-rule="evenodd" fill-opacity="1" /><path clip-path="url(#clip360)" d="M236.806 233.251 Q233.195 233.251 231.366 236.816 Q229.56 240.358 229.56 247.488 Q229.56 254.594 231.366 258.159 Q233.195 261.7 236.806 261.7 Q240.44 261.7 242.245 258.159 Q244.074 254.594 244.074 247.488 Q244.074 240.358 242.245 236.816 Q240.44 233.251 236.806 233.251 M236.806 229.548 Q242.616 229.548 245.671 234.154 Q248.75 238.738 248.75 247.488 Q248.75 256.214 245.671 260.821 Q242.616 265.404 236.806 265.404 Q230.996 265.404 227.917 260.821 Q224.861 256.214 224.861 247.488 Q224.861 238.738 227.917 234.154 Q230.996 229.548 236.806 229.548 Z" fill="#000000" fill-rule="evenodd" fill-opacity="1" /><path clip-path="url(#clip360)" d="M258.775 221.768 Q256.217 221.768 254.712 223.518 Q253.226 225.267 253.226 228.313 Q253.226 231.342 254.712 233.109 Q256.217 234.859 258.775 234.859 Q261.332 234.859 262.818 233.109 Q264.323 231.342 264.323 228.313 Q264.323 225.267 262.818 223.518 Q261.332 221.768 258.775 221.768 M266.316 209.863 L266.316 213.324 Q264.887 212.647 263.42 212.289 Q261.972 211.932 260.543 211.932 Q256.781 211.932 254.787 214.471 Q252.813 217.01 252.53 222.145 Q253.64 220.508 255.314 219.643 Q256.988 218.759 259 218.759 Q263.232 218.759 265.677 221.336 Q268.141 223.894 268.141 228.313 Q268.141 232.639 265.583 235.254 Q263.025 237.868 258.775 237.868 Q253.903 237.868 251.327 234.144 Q248.75 230.401 248.75 223.311 Q248.75 216.653 251.91 212.703 Q255.069 208.735 260.392 208.735 Q261.821 208.735 263.27 209.017 Q264.737 209.299 266.316 209.863 Z" fill="#000000" fill-rule="evenodd" fill-opacity="1" /><path clip-path="url(#clip362)" d="
M404.857 115.937 L404.857 1486.45 L642.284 1486.45 L642.284 115.937 L404.857 115.937 L404.857 115.937  Z
  " fill="#f3ff33" fill-rule="evenodd" fill-opacity="1"/>
<polyline clip-path="url(#clip362)" style="stroke:#000000; stroke-linecap:butt; stroke-linejoin:round; stroke-width:4.8; stroke-opacity:1; fill:none" points="
  404.857,115.937 404.857,1486.45 642.284,1486.45 642.284,115.937 404.857,115.937 
  "/>
<path clip-path="url(#clip362)" d="
M701.641 473.351 L701.641 1486.45 L939.068 1486.45 L939.068 473.351 L701.641 473.351 L701.641 473.351  Z
  " fill="#337aff" fill-rule="evenodd" fill-opacity="1"/>
<polyline clip-path="url(#clip362)" style="stroke:#000000; stroke-linecap:butt; stroke-linejoin:round; stroke-width:4.8; stroke-opacity:1; fill:none" points="
  701.641,473.351 701.641,1486.45 939.068,1486.45 939.068,473.351 701.641,473.351 
  "/>
<path clip-path="url(#clip362)" d="
M998.425 515.564 L998.425 1486.45 L1235.85 1486.45 L1235.85 515.564 L998.425 515.564 L998.425 515.564  Z
  " fill="#ff5e33" fill-rule="evenodd" fill-opacity="1"/>
<polyline clip-path="url(#clip362)" style="stroke:#000000; stroke-linecap:butt; stroke-linejoin:round; stroke-width:4.8; stroke-opacity:1; fill:none" points="
  998.425,515.564 998.425,1486.45 1235.85,1486.45 1235.85,515.564 998.425,515.564 
  "/>
<path clip-path="url(#clip362)" d="
M1295.21 691.771 L1295.21 1486.45 L1532.64 1486.45 L1532.64 691.771 L1295.21 691.771 L1295.21 691.771  Z
  " fill="#55ff33" fill-rule="evenodd" fill-opacity="1"/>
<polyline clip-path="url(#clip362)" style="stroke:#000000; stroke-linecap:butt; stroke-linejoin:round; stroke-width:4.8; stroke-opacity:1; fill:none" points="
  1295.21,691.771 1295.21,1486.45 1532.64,1486.45 1532.64,691.771 1295.21,691.771 
  "/>
<path clip-path="url(#clip362)" d="
M1591.99 802.862 L1591.99 1486.45 L1829.42 1486.45 L1829.42 802.862 L1591.99 802.862 L1591.99 802.862  Z
  " fill="#233cad" fill-rule="evenodd" fill-opacity="1"/>
<polyline clip-path="url(#clip362)" style="stroke:#000000; stroke-linecap:butt; stroke-linejoin:round; stroke-width:4.8; stroke-opacity:1; fill:none" points="
  1591.99,802.862 1591.99,1486.45 1829.42,1486.45 1829.42,802.862 1591.99,802.862 
  "/>
<circle clip-path="url(#clip362)" style="fill:#ee7733; stroke:none; fill-opacity:0" cx="523.571" cy="115.937" r="2"/>
<circle clip-path="url(#clip362)" style="fill:#ee7733; stroke:none; fill-opacity:0" cx="820.355" cy="473.351" r="2"/>
<circle clip-path="url(#clip362)" style="fill:#ee7733; stroke:none; fill-opacity:0" cx="1117.14" cy="515.564" r="2"/>
<circle clip-path="url(#clip362)" style="fill:#ee7733; stroke:none; fill-opacity:0" cx="1413.92" cy="691.771" r="2"/>
<circle clip-path="url(#clip362)" style="fill:#ee7733; stroke:none; fill-opacity:0" cx="1710.71" cy="802.862" r="2"/>
<path clip-path="url(#clip362)" d="
M2050.23 1449.86 L2050.23 1486.45 L2287.65 1486.45 L2287.65 1449.86 L2050.23 1449.86 L2050.23 1449.86  Z
  " fill="#0077bb" fill-rule="evenodd" fill-opacity="1"/>
<polyline clip-path="url(#clip362)" style="stroke:#000000; stroke-linecap:butt; stroke-linejoin:round; stroke-width:4.8; stroke-opacity:1; fill:none" points="
  2050.23,1449.86 2050.23,1486.45 2287.65,1486.45 2287.65,1449.86 2050.23,1449.86 
  "/>
<circle clip-path="url(#clip362)" style="fill:#0077bb; stroke:none; fill-opacity:0" cx="2168.94" cy="1449.86" r="2"/>
<path clip-path="url(#clip360)" d="M423.467 94.9352 L431.106 94.9352 L431.106 68.5696 L422.796 70.2362 L422.796 65.977 L431.06 64.3104 L435.736 64.3104 L435.736 94.9352 L443.375 94.9352 L443.375 98.8704 L423.467 98.8704 L423.467 94.9352 Z" fill="#000000" fill-rule="evenodd" fill-opacity="1" /><path clip-path="url(#clip360)" d="M453.629 94.9352 L461.268 94.9352 L461.268 68.5696 L452.958 70.2362 L452.958 65.977 L461.222 64.3104 L465.898 64.3104 L465.898 94.9352 L473.536 94.9352 L473.536 98.8704 L453.629 98.8704 L453.629 94.9352 Z" fill="#000000" fill-rule="evenodd" fill-opacity="1" /><path clip-path="url(#clip360)" d="M492.981 67.389 Q489.37 67.389 487.541 70.9538 Q485.735 74.4955 485.735 81.6251 Q485.735 88.7315 487.541 92.2963 Q489.37 95.838 492.981 95.838 Q496.615 95.838 498.421 92.2963 Q500.249 88.7315 500.249 81.6251 Q500.249 74.4955 498.421 70.9538 Q496.615 67.389 492.981 67.389 M492.981 63.6854 Q498.791 63.6854 501.846 68.2918 Q504.925 72.8751 504.925 81.6251 Q504.925 90.3519 501.846 94.9583 Q498.791 99.5416 492.981 99.5416 Q487.171 99.5416 484.092 94.9583 Q481.036 90.3519 481.036 81.6251 Q481.036 72.8751 484.092 68.2918 Q487.171 63.6854 492.981 63.6854 Z" fill="#000000" fill-rule="evenodd" fill-opacity="1" /><path clip-path="url(#clip360)" d="M523.143 67.389 Q519.532 67.389 517.703 70.9538 Q515.897 74.4955 515.897 81.6251 Q515.897 88.7315 517.703 92.2963 Q519.532 95.838 523.143 95.838 Q526.777 95.838 528.582 92.2963 Q530.411 88.7315 530.411 81.6251 Q530.411 74.4955 528.582 70.9538 Q526.777 67.389 523.143 67.389 M523.143 63.6854 Q528.953 63.6854 532.008 68.2918 Q535.087 72.8751 535.087 81.6251 Q535.087 90.3519 532.008 94.9583 Q528.953 99.5416 523.143 99.5416 Q517.332 99.5416 514.254 94.9583 Q511.198 90.3519 511.198 81.6251 Q511.198 72.8751 514.254 68.2918 Q517.332 63.6854 523.143 63.6854 Z" fill="#000000" fill-rule="evenodd" fill-opacity="1" /><path clip-path="url(#clip360)" d="M556.152 68.3844 L544.346 86.8334 L556.152 86.8334 L556.152 68.3844 M554.925 64.3104 L560.804 64.3104 L560.804 86.8334 L565.735 86.8334 L565.735 90.7222 L560.804 90.7222 L560.804 98.8704 L556.152 98.8704 L556.152 90.7222 L540.55 90.7222 L540.55 86.2084 L554.925 64.3104 Z" fill="#000000" fill-rule="evenodd" fill-opacity="1" /><path clip-path="url(#clip360)" d="M577.494 94.9352 L593.814 94.9352 L593.814 98.8704 L571.869 98.8704 L571.869 94.9352 Q574.531 92.1806 579.115 87.551 Q583.721 82.8982 584.902 81.5556 Q587.147 79.0325 588.027 77.2964 Q588.929 75.5371 588.929 73.8473 Q588.929 71.0927 586.985 69.3566 Q585.064 67.6205 581.962 67.6205 Q579.763 67.6205 577.309 68.3844 Q574.878 69.1483 572.101 70.6992 L572.101 65.977 Q574.925 64.8428 577.378 64.2641 Q579.832 63.6854 581.869 63.6854 Q587.24 63.6854 590.434 66.3705 Q593.628 69.0557 593.628 73.5464 Q593.628 75.676 592.818 77.5973 Q592.031 79.4955 589.925 82.088 Q589.346 82.7593 586.244 85.9769 Q583.142 89.1713 577.494 94.9352 Z" fill="#000000" fill-rule="evenodd" fill-opacity="1" /><path clip-path="url(#clip360)" d="M604.438 94.9352 L612.077 94.9352 L612.077 68.5696 L603.767 70.2362 L603.767 65.977 L612.031 64.3104 L616.707 64.3104 L616.707 94.9352 L624.346 94.9352 L624.346 98.8704 L604.438 98.8704 L604.438 94.9352 Z" fill="#000000" fill-rule="evenodd" fill-opacity="1" /><path clip-path="url(#clip360)" d="M745.228 439.873 Q741.894 439.873 739.973 441.655 Q738.075 443.438 738.075 446.563 Q738.075 449.688 739.973 451.47 Q741.894 453.253 745.228 453.253 Q748.561 453.253 750.482 451.47 Q752.404 449.665 752.404 446.563 Q752.404 443.438 750.482 441.655 Q748.584 439.873 745.228 439.873 M740.552 437.882 Q737.543 437.142 735.853 435.081 Q734.186 433.021 734.186 430.058 Q734.186 425.915 737.126 423.507 Q740.089 421.1 745.228 421.1 Q750.39 421.1 753.33 423.507 Q756.269 425.915 756.269 430.058 Q756.269 433.021 754.58 435.081 Q752.913 437.142 749.927 437.882 Q753.306 438.669 755.181 440.961 Q757.079 443.253 757.079 446.563 Q757.079 451.586 754.001 454.271 Q750.945 456.956 745.228 456.956 Q739.51 456.956 736.431 454.271 Q733.376 451.586 733.376 446.563 Q733.376 443.253 735.274 440.961 Q737.172 438.669 740.552 437.882 M738.839 430.498 Q738.839 433.183 740.506 434.688 Q742.195 436.193 745.228 436.193 Q748.237 436.193 749.927 434.688 Q751.64 433.183 751.64 430.498 Q751.64 427.813 749.927 426.308 Q748.237 424.804 745.228 424.804 Q742.195 424.804 740.506 426.308 Q738.839 427.813 738.839 430.498 Z" fill="#000000" fill-rule="evenodd" fill-opacity="1" /><path clip-path="url(#clip360)" d="M766.2 452.35 L773.839 452.35 L773.839 425.984 L765.529 427.651 L765.529 423.392 L773.792 421.725 L778.468 421.725 L778.468 452.35 L786.107 452.35 L786.107 456.285 L766.2 456.285 L766.2 452.35 Z" fill="#000000" fill-rule="evenodd" fill-opacity="1" /><path clip-path="url(#clip360)" d="M809.718 437.651 Q813.075 438.368 814.95 440.637 Q816.848 442.905 816.848 446.239 Q816.848 451.354 813.329 454.155 Q809.811 456.956 803.329 456.956 Q801.153 456.956 798.839 456.516 Q796.547 456.1 794.093 455.243 L794.093 450.729 Q796.038 451.864 798.352 452.442 Q800.667 453.021 803.19 453.021 Q807.588 453.021 809.88 451.285 Q812.195 449.549 812.195 446.239 Q812.195 443.183 810.042 441.47 Q807.913 439.734 804.093 439.734 L800.065 439.734 L800.065 435.892 L804.278 435.892 Q807.727 435.892 809.556 434.526 Q811.385 433.137 811.385 430.544 Q811.385 427.882 809.487 426.47 Q807.612 425.035 804.093 425.035 Q802.172 425.035 799.973 425.452 Q797.774 425.868 795.135 426.748 L795.135 422.581 Q797.797 421.841 800.112 421.47 Q802.45 421.1 804.51 421.1 Q809.834 421.1 812.936 423.531 Q816.038 425.938 816.038 430.058 Q816.038 432.929 814.394 434.919 Q812.75 436.887 809.718 437.651 Z" fill="#000000" fill-rule="evenodd" fill-opacity="1" /><path clip-path="url(#clip360)" d="M838.561 425.799 L826.755 444.248 L838.561 444.248 L838.561 425.799 M837.334 421.725 L843.213 421.725 L843.213 444.248 L848.144 444.248 L848.144 448.137 L843.213 448.137 L843.213 456.285 L838.561 456.285 L838.561 448.137 L822.959 448.137 L822.959 443.623 L837.334 421.725 Z" fill="#000000" fill-rule="evenodd" fill-opacity="1" /><path clip-path="url(#clip360)" d="M868.722 425.799 L856.917 444.248 L868.722 444.248 L868.722 425.799 M867.496 421.725 L873.375 421.725 L873.375 444.248 L878.306 444.248 L878.306 448.137 L873.375 448.137 L873.375 456.285 L868.722 456.285 L868.722 448.137 L853.121 448.137 L853.121 443.623 L867.496 421.725 Z" fill="#000000" fill-rule="evenodd" fill-opacity="1" /><path clip-path="url(#clip360)" d="M900.204 437.651 Q903.56 438.368 905.435 440.637 Q907.333 442.905 907.333 446.239 Q907.333 451.354 903.815 454.155 Q900.296 456.956 893.815 456.956 Q891.639 456.956 889.324 456.516 Q887.032 456.1 884.579 455.243 L884.579 450.729 Q886.523 451.864 888.838 452.442 Q891.153 453.021 893.676 453.021 Q898.074 453.021 900.366 451.285 Q902.681 449.549 902.681 446.239 Q902.681 443.183 900.528 441.47 Q898.398 439.734 894.579 439.734 L890.551 439.734 L890.551 435.892 L894.764 435.892 Q898.213 435.892 900.042 434.526 Q901.87 433.137 901.87 430.544 Q901.87 427.882 899.972 426.47 Q898.097 425.035 894.579 425.035 Q892.657 425.035 890.458 425.452 Q888.259 425.868 885.62 426.748 L885.62 422.581 Q888.282 421.841 890.597 421.47 Q892.935 421.1 894.995 421.1 Q900.319 421.1 903.421 423.531 Q906.523 425.938 906.523 430.058 Q906.523 432.929 904.88 434.919 Q903.236 436.887 900.204 437.651 Z" fill="#000000" fill-rule="evenodd" fill-opacity="1" /><path clip-path="url(#clip360)" d="M1030.26 463.938 L1052.49 463.938 L1052.49 465.929 L1039.94 498.498 L1035.06 498.498 L1046.86 467.873 L1030.26 467.873 L1030.26 463.938 Z" fill="#000000" fill-rule="evenodd" fill-opacity="1" /><path clip-path="url(#clip360)" d="M1060.43 463.938 L1082.65 463.938 L1082.65 465.929 L1070.1 498.498 L1065.22 498.498 L1077.02 467.873 L1060.43 467.873 L1060.43 463.938 Z" fill="#000000" fill-rule="evenodd" fill-opacity="1" /><path clip-path="url(#clip360)" d="M1091.91 497.78 L1091.91 493.521 Q1093.67 494.355 1095.47 494.794 Q1097.28 495.234 1099.01 495.234 Q1103.64 495.234 1106.07 492.132 Q1108.53 489.007 1108.87 482.665 Q1107.53 484.656 1105.47 485.72 Q1103.41 486.785 1100.91 486.785 Q1095.73 486.785 1092.69 483.66 Q1089.68 480.512 1089.68 475.072 Q1089.68 469.748 1092.83 466.531 Q1095.98 463.313 1101.21 463.313 Q1107.21 463.313 1110.36 467.919 Q1113.53 472.503 1113.53 481.253 Q1113.53 489.424 1109.64 494.308 Q1105.77 499.169 1099.22 499.169 Q1097.46 499.169 1095.66 498.822 Q1093.85 498.475 1091.91 497.78 M1101.21 483.128 Q1104.36 483.128 1106.19 480.975 Q1108.04 478.822 1108.04 475.072 Q1108.04 471.345 1106.19 469.193 Q1104.36 467.017 1101.21 467.017 Q1098.06 467.017 1096.21 469.193 Q1094.38 471.345 1094.38 475.072 Q1094.38 478.822 1096.21 480.975 Q1098.06 483.128 1101.21 483.128 Z" fill="#000000" fill-rule="evenodd" fill-opacity="1" /><path clip-path="url(#clip360)" d="M1121.98 463.938 L1140.33 463.938 L1140.33 467.873 L1126.26 467.873 L1126.26 476.345 Q1127.28 475.998 1128.3 475.836 Q1129.31 475.651 1130.33 475.651 Q1136.12 475.651 1139.5 478.822 Q1142.88 481.993 1142.88 487.41 Q1142.88 492.989 1139.41 496.091 Q1135.93 499.169 1129.62 499.169 Q1127.44 499.169 1125.17 498.799 Q1122.93 498.429 1120.52 497.688 L1120.52 492.989 Q1122.6 494.123 1124.82 494.679 Q1127.05 495.234 1129.52 495.234 Q1133.53 495.234 1135.87 493.128 Q1138.2 491.021 1138.2 487.41 Q1138.2 483.799 1135.87 481.693 Q1133.53 479.586 1129.52 479.586 Q1127.65 479.586 1125.77 480.003 Q1123.92 480.419 1121.98 481.299 L1121.98 463.938 Z" fill="#000000" fill-rule="evenodd" fill-opacity="1" /><path clip-path="url(#clip360)" d="M1164.94 468.012 L1153.13 486.461 L1164.94 486.461 L1164.94 468.012 M1163.71 463.938 L1169.59 463.938 L1169.59 486.461 L1174.52 486.461 L1174.52 490.35 L1169.59 490.35 L1169.59 498.498 L1164.94 498.498 L1164.94 490.35 L1149.34 490.35 L1149.34 485.836 L1163.71 463.938 Z" fill="#000000" fill-rule="evenodd" fill-opacity="1" /><path clip-path="url(#clip360)" d="M1182.39 497.78 L1182.39 493.521 Q1184.15 494.355 1185.96 494.794 Q1187.76 495.234 1189.5 495.234 Q1194.13 495.234 1196.56 492.132 Q1199.01 489.007 1199.36 482.665 Q1198.02 484.656 1195.96 485.72 Q1193.9 486.785 1191.4 486.785 Q1186.21 486.785 1183.18 483.66 Q1180.17 480.512 1180.17 475.072 Q1180.17 469.748 1183.32 466.531 Q1186.47 463.313 1191.7 463.313 Q1197.69 463.313 1200.84 467.919 Q1204.01 472.503 1204.01 481.253 Q1204.01 489.424 1200.12 494.308 Q1196.26 499.169 1189.71 499.169 Q1187.95 499.169 1186.14 498.822 Q1184.34 498.475 1182.39 497.78 M1191.7 483.128 Q1194.85 483.128 1196.67 480.975 Q1198.53 478.822 1198.53 475.072 Q1198.53 471.345 1196.67 469.193 Q1194.85 467.017 1191.7 467.017 Q1188.55 467.017 1186.7 469.193 Q1184.87 471.345 1184.87 475.072 Q1184.87 478.822 1186.7 480.975 Q1188.55 483.128 1191.7 483.128 Z" fill="#000000" fill-rule="evenodd" fill-opacity="1" /><path clip-path="url(#clip360)" d="M1339.05 655.561 Q1335.9 655.561 1334.05 657.714 Q1332.22 659.867 1332.22 663.617 Q1332.22 667.343 1334.05 669.519 Q1335.9 671.672 1339.05 671.672 Q1342.2 671.672 1344.03 669.519 Q1345.88 667.343 1345.88 663.617 Q1345.88 659.867 1344.03 657.714 Q1342.2 655.561 1339.05 655.561 M1348.33 640.908 L1348.33 645.168 Q1346.57 644.334 1344.77 643.894 Q1342.98 643.455 1341.23 643.455 Q1336.6 643.455 1334.14 646.58 Q1331.71 649.705 1331.36 656.024 Q1332.73 654.01 1334.79 652.945 Q1336.85 651.857 1339.33 651.857 Q1344.54 651.857 1347.55 655.029 Q1350.58 658.177 1350.58 663.617 Q1350.58 668.941 1347.43 672.158 Q1344.28 675.376 1339.05 675.376 Q1333.05 675.376 1329.88 670.792 Q1326.71 666.186 1326.71 657.459 Q1326.71 649.265 1330.6 644.404 Q1334.49 639.52 1341.04 639.52 Q1342.8 639.52 1344.58 639.867 Q1346.39 640.214 1348.33 640.908 Z" fill="#000000" fill-rule="evenodd" fill-opacity="1" /><path clip-path="url(#clip360)" d="M1372.8 656.07 Q1376.16 656.788 1378.03 659.056 Q1379.93 661.325 1379.93 664.658 Q1379.93 669.774 1376.41 672.575 Q1372.89 675.376 1366.41 675.376 Q1364.23 675.376 1361.92 674.936 Q1359.63 674.519 1357.17 673.663 L1357.17 669.149 Q1359.12 670.283 1361.43 670.862 Q1363.75 671.441 1366.27 671.441 Q1370.67 671.441 1372.96 669.705 Q1375.28 667.968 1375.28 664.658 Q1375.28 661.603 1373.12 659.89 Q1370.99 658.154 1367.17 658.154 L1363.15 658.154 L1363.15 654.311 L1367.36 654.311 Q1370.81 654.311 1372.64 652.945 Q1374.47 651.556 1374.47 648.964 Q1374.47 646.302 1372.57 644.89 Q1370.69 643.455 1367.17 643.455 Q1365.25 643.455 1363.05 643.871 Q1360.86 644.288 1358.22 645.168 L1358.22 641.001 Q1360.88 640.26 1363.19 639.89 Q1365.53 639.52 1367.59 639.52 Q1372.92 639.52 1376.02 641.95 Q1379.12 644.357 1379.12 648.478 Q1379.12 651.348 1377.48 653.339 Q1375.83 655.306 1372.8 656.07 Z" fill="#000000" fill-rule="evenodd" fill-opacity="1" /><path clip-path="url(#clip360)" d="M1398.79 658.293 Q1395.46 658.293 1393.54 660.075 Q1391.64 661.857 1391.64 664.982 Q1391.64 668.107 1393.54 669.89 Q1395.46 671.672 1398.79 671.672 Q1402.13 671.672 1404.05 669.89 Q1405.97 668.084 1405.97 664.982 Q1405.97 661.857 1404.05 660.075 Q1402.15 658.293 1398.79 658.293 M1394.12 656.302 Q1391.11 655.561 1389.42 653.501 Q1387.75 651.441 1387.75 648.478 Q1387.75 644.334 1390.69 641.927 Q1393.66 639.52 1398.79 639.52 Q1403.96 639.52 1406.9 641.927 Q1409.84 644.334 1409.84 648.478 Q1409.84 651.441 1408.15 653.501 Q1406.48 655.561 1403.49 656.302 Q1406.87 657.089 1408.75 659.381 Q1410.65 661.672 1410.65 664.982 Q1410.65 670.005 1407.57 672.691 Q1404.51 675.376 1398.79 675.376 Q1393.08 675.376 1390 672.691 Q1386.94 670.005 1386.94 664.982 Q1386.94 661.672 1388.84 659.381 Q1390.74 657.089 1394.12 656.302 M1392.41 648.918 Q1392.41 651.603 1394.07 653.107 Q1395.76 654.612 1398.79 654.612 Q1401.8 654.612 1403.49 653.107 Q1405.21 651.603 1405.21 648.918 Q1405.21 646.232 1403.49 644.728 Q1401.8 643.223 1398.79 643.223 Q1395.76 643.223 1394.07 644.728 Q1392.41 646.232 1392.41 648.918 Z" fill="#000000" fill-rule="evenodd" fill-opacity="1" /><path clip-path="url(#clip360)" d="M1428.96 643.223 Q1425.35 643.223 1423.52 646.788 Q1421.71 650.33 1421.71 657.459 Q1421.71 664.566 1423.52 668.13 Q1425.35 671.672 1428.96 671.672 Q1432.59 671.672 1434.4 668.13 Q1436.23 664.566 1436.23 657.459 Q1436.23 650.33 1434.4 646.788 Q1432.59 643.223 1428.96 643.223 M1428.96 639.52 Q1434.77 639.52 1437.82 644.126 Q1440.9 648.709 1440.9 657.459 Q1440.9 666.186 1437.82 670.792 Q1434.77 675.376 1428.96 675.376 Q1423.15 675.376 1420.07 670.792 Q1417.01 666.186 1417.01 657.459 Q1417.01 648.709 1420.07 644.126 Q1423.15 639.52 1428.96 639.52 Z" fill="#000000" fill-rule="evenodd" fill-opacity="1" /><path clip-path="url(#clip360)" d="M1459.7 655.561 Q1456.55 655.561 1454.7 657.714 Q1452.87 659.867 1452.87 663.617 Q1452.87 667.343 1454.7 669.519 Q1456.55 671.672 1459.7 671.672 Q1462.85 671.672 1464.67 669.519 Q1466.53 667.343 1466.53 663.617 Q1466.53 659.867 1464.67 657.714 Q1462.85 655.561 1459.7 655.561 M1468.98 640.908 L1468.98 645.168 Q1467.22 644.334 1465.41 643.894 Q1463.63 643.455 1461.87 643.455 Q1457.24 643.455 1454.79 646.58 Q1452.36 649.705 1452.01 656.024 Q1453.38 654.01 1455.44 652.945 Q1457.5 651.857 1459.98 651.857 Q1465.18 651.857 1468.19 655.029 Q1471.23 658.177 1471.23 663.617 Q1471.23 668.941 1468.08 672.158 Q1464.93 675.376 1459.7 675.376 Q1453.7 675.376 1450.53 670.792 Q1447.36 666.186 1447.36 657.459 Q1447.36 649.265 1451.25 644.404 Q1455.14 639.52 1461.69 639.52 Q1463.45 639.52 1465.23 639.867 Q1467.04 640.214 1468.98 640.908 Z" fill="#000000" fill-rule="evenodd" fill-opacity="1" /><path clip-path="url(#clip360)" d="M1489.28 658.293 Q1485.95 658.293 1484.03 660.075 Q1482.13 661.857 1482.13 664.982 Q1482.13 668.107 1484.03 669.89 Q1485.95 671.672 1489.28 671.672 Q1492.61 671.672 1494.54 669.89 Q1496.46 668.084 1496.46 664.982 Q1496.46 661.857 1494.54 660.075 Q1492.64 658.293 1489.28 658.293 M1484.6 656.302 Q1481.6 655.561 1479.91 653.501 Q1478.24 651.441 1478.24 648.478 Q1478.24 644.334 1481.18 641.927 Q1484.14 639.52 1489.28 639.52 Q1494.44 639.52 1497.38 641.927 Q1500.32 644.334 1500.32 648.478 Q1500.32 651.441 1498.63 653.501 Q1496.97 655.561 1493.98 656.302 Q1497.36 657.089 1499.23 659.381 Q1501.13 661.672 1501.13 664.982 Q1501.13 670.005 1498.05 672.691 Q1495 675.376 1489.28 675.376 Q1483.56 675.376 1480.48 672.691 Q1477.43 670.005 1477.43 664.982 Q1477.43 661.672 1479.33 659.381 Q1481.22 657.089 1484.6 656.302 M1482.89 648.918 Q1482.89 651.603 1484.56 653.107 Q1486.25 654.612 1489.28 654.612 Q1492.29 654.612 1493.98 653.107 Q1495.69 651.603 1495.69 648.918 Q1495.69 646.232 1493.98 644.728 Q1492.29 643.223 1489.28 643.223 Q1486.25 643.223 1484.56 644.728 Q1482.89 646.232 1482.89 648.918 Z" fill="#000000" fill-rule="evenodd" fill-opacity="1" /><path clip-path="url(#clip360)" d="M1625.08 751.236 L1643.44 751.236 L1643.44 755.171 L1629.36 755.171 L1629.36 763.643 Q1630.38 763.296 1631.4 763.134 Q1632.42 762.948 1633.44 762.948 Q1639.22 762.948 1642.6 766.12 Q1645.98 769.291 1645.98 774.708 Q1645.98 780.286 1642.51 783.388 Q1639.04 786.467 1632.72 786.467 Q1630.54 786.467 1628.28 786.096 Q1626.03 785.726 1623.62 784.985 L1623.62 780.286 Q1625.71 781.421 1627.93 781.976 Q1630.15 782.532 1632.63 782.532 Q1636.63 782.532 1638.97 780.425 Q1641.31 778.319 1641.31 774.708 Q1641.31 771.097 1638.97 768.99 Q1636.63 766.884 1632.63 766.884 Q1630.75 766.884 1628.88 767.3 Q1627.03 767.717 1625.08 768.597 L1625.08 751.236 Z" fill="#000000" fill-rule="evenodd" fill-opacity="1" /><path clip-path="url(#clip360)" d="M1668.04 755.31 L1656.24 773.759 L1668.04 773.759 L1668.04 755.31 M1666.82 751.236 L1672.7 751.236 L1672.7 773.759 L1677.63 773.759 L1677.63 777.647 L1672.7 777.647 L1672.7 785.796 L1668.04 785.796 L1668.04 777.647 L1652.44 777.647 L1652.44 773.134 L1666.82 751.236 Z" fill="#000000" fill-rule="evenodd" fill-opacity="1" /><path clip-path="url(#clip360)" d="M1695.36 769.384 Q1692.03 769.384 1690.1 771.166 Q1688.21 772.948 1688.21 776.073 Q1688.21 779.198 1690.1 780.981 Q1692.03 782.763 1695.36 782.763 Q1698.69 782.763 1700.61 780.981 Q1702.53 779.175 1702.53 776.073 Q1702.53 772.948 1700.61 771.166 Q1698.72 769.384 1695.36 769.384 M1690.68 767.393 Q1687.67 766.652 1685.98 764.592 Q1684.32 762.532 1684.32 759.569 Q1684.32 755.425 1687.26 753.018 Q1690.22 750.611 1695.36 750.611 Q1700.52 750.611 1703.46 753.018 Q1706.4 755.425 1706.4 759.569 Q1706.4 762.532 1704.71 764.592 Q1703.04 766.652 1700.06 767.393 Q1703.44 768.18 1705.31 770.472 Q1707.21 772.763 1707.21 776.073 Q1707.21 781.096 1704.13 783.782 Q1701.08 786.467 1695.36 786.467 Q1689.64 786.467 1686.56 783.782 Q1683.51 781.096 1683.51 776.073 Q1683.51 772.763 1685.41 770.472 Q1687.3 768.18 1690.68 767.393 M1688.97 760.009 Q1688.97 762.694 1690.64 764.198 Q1692.33 765.703 1695.36 765.703 Q1698.37 765.703 1700.06 764.198 Q1701.77 762.694 1701.77 760.009 Q1701.77 757.323 1700.06 755.819 Q1698.37 754.314 1695.36 754.314 Q1692.33 754.314 1690.64 755.819 Q1688.97 757.323 1688.97 760.009 Z" fill="#000000" fill-rule="evenodd" fill-opacity="1" /><path clip-path="url(#clip360)" d="M1725.52 769.384 Q1722.19 769.384 1720.27 771.166 Q1718.37 772.948 1718.37 776.073 Q1718.37 779.198 1720.27 780.981 Q1722.19 782.763 1725.52 782.763 Q1728.85 782.763 1730.78 780.981 Q1732.7 779.175 1732.7 776.073 Q1732.7 772.948 1730.78 771.166 Q1728.88 769.384 1725.52 769.384 M1720.84 767.393 Q1717.84 766.652 1716.15 764.592 Q1714.48 762.532 1714.48 759.569 Q1714.48 755.425 1717.42 753.018 Q1720.38 750.611 1725.52 750.611 Q1730.68 750.611 1733.62 753.018 Q1736.56 755.425 1736.56 759.569 Q1736.56 762.532 1734.87 764.592 Q1733.21 766.652 1730.22 767.393 Q1733.6 768.18 1735.47 770.472 Q1737.37 772.763 1737.37 776.073 Q1737.37 781.096 1734.29 783.782 Q1731.24 786.467 1725.52 786.467 Q1719.8 786.467 1716.72 783.782 Q1713.67 781.096 1713.67 776.073 Q1713.67 772.763 1715.57 770.472 Q1717.47 768.18 1720.84 767.393 M1719.13 760.009 Q1719.13 762.694 1720.8 764.198 Q1722.49 765.703 1725.52 765.703 Q1728.53 765.703 1730.22 764.198 Q1731.93 762.694 1731.93 760.009 Q1731.93 757.323 1730.22 755.819 Q1728.53 754.314 1725.52 754.314 Q1722.49 754.314 1720.8 755.819 Q1719.13 757.323 1719.13 760.009 Z" fill="#000000" fill-rule="evenodd" fill-opacity="1" /><path clip-path="url(#clip360)" d="M1744.5 751.236 L1766.72 751.236 L1766.72 753.226 L1754.18 785.796 L1749.29 785.796 L1761.1 755.171 L1744.5 755.171 L1744.5 751.236 Z" fill="#000000" fill-rule="evenodd" fill-opacity="1" /><path clip-path="url(#clip360)" d="M1785.84 754.314 Q1782.23 754.314 1780.4 757.879 Q1778.6 761.421 1778.6 768.55 Q1778.6 775.657 1780.4 779.221 Q1782.23 782.763 1785.84 782.763 Q1789.48 782.763 1791.28 779.221 Q1793.11 775.657 1793.11 768.55 Q1793.11 761.421 1791.28 757.879 Q1789.48 754.314 1785.84 754.314 M1785.84 750.611 Q1791.65 750.611 1794.71 755.217 Q1797.79 759.8 1797.79 768.55 Q1797.79 777.277 1794.71 781.883 Q1791.65 786.467 1785.84 786.467 Q1780.03 786.467 1776.96 781.883 Q1773.9 777.277 1773.9 768.55 Q1773.9 759.8 1776.96 755.217 Q1780.03 750.611 1785.84 750.611 Z" fill="#000000" fill-rule="evenodd" fill-opacity="1" /></svg>
